<svg width="26" height="26" viewBox="0 0 26 26" fill="none" xmlns="http://www.w3.org/2000/svg">
<rect width="26" height="26" fill="white" style="mix-blend-mode:multiply"/>
<path d="M11.6765 11.0226L11.6765 11.0226L11.6777 11.0233C12.1766 11.3021 12.7505 11.745 13.3997 12.3558L13.4 12.356C13.844 12.7705 14.2026 13.0663 14.4739 13.2394L14.4739 13.2394L14.4747 13.2399C14.7599 13.4177 15.0715 13.507 15.4075 13.507C15.9527 13.507 16.3898 13.2927 16.7086 12.8661L16.709 12.8654C16.8748 12.6401 16.9934 12.3653 17.0672 12.044C17.1819 11.5451 17.5646 11.1426 18.0447 11.1426C18.5237 11.1426 18.9091 11.5259 18.8625 11.9853C18.7981 12.6192 18.6514 13.151 18.4252 13.5835L18.4249 13.5842C18.0973 14.2218 17.6676 14.6803 17.1376 14.9663C16.6012 15.2557 16.0369 15.4 15.4434 15.4C14.8493 15.4 14.3099 15.2619 13.8231 14.9868C13.3296 14.7014 12.7555 14.2549 12.1002 13.6442C11.6621 13.2296 11.3032 12.9334 11.0253 12.7601C10.7401 12.5823 10.4285 12.493 10.0925 12.493C9.57853 12.493 9.14988 12.6899 8.81372 13.0801L8.81368 13.0801C8.62562 13.2987 8.49668 13.5935 8.42138 13.9575C8.31814 14.4566 7.93609 14.8574 7.45599 14.8574C6.97665 14.8574 6.59085 14.4738 6.63758 14.014C6.70196 13.3804 6.84869 12.8489 7.07477 12.4165C7.40847 11.7783 7.83843 11.3197 8.3626 11.0336C8.89897 10.7442 9.4632 10.6 10.0566 10.6C10.6505 10.6 11.1897 10.7412 11.6765 11.0226Z" fill="#161616" stroke="white" stroke-width="0.2"/>
</svg>
