<svg width="26" height="26" viewBox="0 0 26 26" fill="none" xmlns="http://www.w3.org/2000/svg">
<path fill-rule="evenodd" clip-rule="evenodd" d="M4 5.5H21C21.2761 5.5 21.5 5.72386 21.5 6V8.5H3.5V6C3.5 5.72386 3.72386 5.5 4 5.5ZM3.5 10V13.5H8V10H3.5ZM9.5 10V13.5H21.5V10H9.5ZM8 15H3.5V18C3.5 18.2761 3.72386 18.5 4 18.5H8V15ZM9.5 18.5V15H21.5V18C21.5 18.2761 21.2761 18.5 21 18.5H9.5ZM2 6C2 4.89543 2.89543 4 4 4H21C22.1046 4 23 4.89543 23 6V18C23 19.1046 22.1046 20 21 20H4C2.89543 20 2 19.1046 2 18V6Z" fill="fuchsia"/>
</svg>
