<svg width="36" height="36" viewBox="0 0 36 36" fill="none" xmlns="http://www.w3.org/2000/svg">
<path fill-rule="evenodd" clip-rule="evenodd" d="M24.5854 10.4428C24.439 10.2964 24.2015 10.2964 24.0551 10.4428L18.0005 16.4974L11.9459 10.4428C11.7995 10.2963 11.562 10.2963 11.4156 10.4428L10.4433 11.415C10.2969 11.5615 10.2969 11.7989 10.4433 11.9454L16.4979 18L10.4433 24.0546C10.2968 24.201 10.2968 24.4385 10.4433 24.5849L11.4156 25.5572C11.562 25.7037 11.7994 25.7037 11.9459 25.5572L18.0005 19.5026L24.0551 25.5572C24.2016 25.7036 24.439 25.7036 24.5854 25.5572L25.5577 24.5849C25.7042 24.4385 25.7042 24.201 25.5577 24.0546L19.5031 18L25.5577 11.9454C25.7041 11.799 25.7041 11.5615 25.5577 11.4151L24.5854 10.4428ZM22.6409 9.02858C23.5684 8.10109 25.0721 8.10109 25.9996 9.02858L26.9719 10.0009C27.8994 10.9284 27.8994 12.4321 26.9719 13.3596L22.3315 18L26.9719 22.6404C27.8994 23.5679 27.8994 25.0716 26.9719 25.9991L25.9997 26.9714C25.0722 27.8989 23.5684 27.8989 22.6409 26.9714L18.0005 22.331L13.3601 26.9714C12.4326 27.8989 10.9288 27.8989 10.0013 26.9714L9.02908 25.9991C8.10158 25.0717 8.10158 23.5679 9.02908 22.6404L13.6695 18L9.02909 13.3596C8.1016 12.4321 8.1016 10.9283 9.02909 10.0008L10.0014 9.02856C10.9289 8.10107 12.4326 8.10106 13.3601 9.02856L18.0005 13.669L22.6409 9.02858Z" fill="fuchsia"/>
</svg>
