<svg width="36" height="36" viewBox="0 0 36 36" fill="none" xmlns="http://www.w3.org/2000/svg">
<path d="M26.2648 25.292C26.8018 24.7551 26.8018 23.8844 26.2648 23.3475L20.9173 18L26.2648 12.6525C26.8018 12.1155 26.8018 11.2449 26.2648 10.708L25.2925 9.7357C24.7555 9.19873 23.8849 9.19873 23.348 9.7357L18.0005 15.0832L12.653 9.73567C12.116 9.1987 11.2454 9.1987 10.7085 9.73567L9.73618 10.7079C9.19921 11.2449 9.19921 12.1155 9.73618 12.6525L15.0837 18L9.73616 23.3475C9.19919 23.8845 9.19919 24.7551 9.73616 25.292L10.7084 26.2643C11.2454 26.8013 12.116 26.8013 12.653 26.2643L18.0005 20.9168L23.348 26.2643C23.885 26.8013 24.7556 26.8013 25.2925 26.2643L26.2648 25.292Z" fill="fuchsia"/>
<path fill-rule="evenodd" clip-rule="evenodd" d="M24.5854 10.4428C24.439 10.2964 24.2015 10.2964 24.0551 10.4428L18.0005 16.4974L11.9459 10.4428C11.7994 10.2963 11.562 10.2963 11.4156 10.4428L10.4433 11.4151C10.2968 11.5615 10.2968 11.7989 10.4433 11.9454L16.4979 18L10.4433 24.0546C10.2968 24.2011 10.2968 24.4385 10.4433 24.5849L11.4155 25.5572C11.562 25.7037 11.7994 25.7037 11.9459 25.5572L18.0005 19.5026L24.0551 25.5572C24.2015 25.7036 24.439 25.7036 24.5854 25.5572L25.5577 24.5849C25.7041 24.4385 25.7041 24.201 25.5577 24.0546L19.5031 18L25.5577 11.9454C25.7041 11.799 25.7041 11.5615 25.5577 11.4151L24.5854 10.4428ZM22.6409 9.02859C23.5684 8.1011 25.0721 8.1011 25.9996 9.02859L26.9719 10.0009C27.8994 10.9284 27.8994 12.4321 26.9719 13.3596L22.3315 18L26.9719 22.6404C27.8994 23.5679 27.8994 25.0716 26.9719 25.9991L25.9996 26.9714C25.0721 27.8989 23.5684 27.8989 22.6409 26.9714L18.0005 22.331L13.3601 26.9714C12.4326 27.8989 10.9288 27.8989 10.0013 26.9714L9.02906 25.9992C8.10156 25.0717 8.10156 23.5679 9.02906 22.6404L13.6695 18L9.02907 13.3596C8.10158 12.4321 8.10158 10.9283 9.02907 10.0008L10.0013 9.02857C10.9288 8.10107 12.4326 8.10107 13.3601 9.02857L18.0005 13.669L22.6409 9.02859Z" fill="fuchsia"/>
</svg>
