<svg width="26" height="26" viewBox="0 0 26 26" fill="none" xmlns="http://www.w3.org/2000/svg">
<rect width="26" height="26" fill="white" style="mix-blend-mode:multiply"/>
<rect x="18.75" y="7.25" width="11.5" height="11.5" rx="1.25" transform="rotate(90 18.75 7.25)" fill="white" stroke="#161616" stroke-width="1.5"/>
<path d="M13.1538 17.125C13.3928 17.125 13.5865 16.9313 13.5865 16.6923V13.5865H16.6923C16.9313 13.5865 17.125 13.3928 17.125 13.1538V12.8462C17.125 12.6072 16.9313 12.4135 16.6923 12.4135H13.5865V9.30769C13.5865 9.06874 13.3928 8.875 13.1538 8.875H12.8462C12.6072 8.875 12.4135 9.06874 12.4135 9.30769V12.4135H9.30769C9.06872 12.4135 8.875 12.6072 8.875 12.8462V13.1538C8.875 13.3928 9.06872 13.5865 9.30769 13.5865H12.4135V16.6923C12.4135 16.9313 12.6072 17.125 12.8462 17.125H13.1538Z" fill="#161616" stroke="#161616" stroke-width="0.25"/>
</svg>
