<svg width="35" height="35" viewBox="0 0 35 35" fill="none" xmlns="http://www.w3.org/2000/svg">
<path d="M7.64623 29.5248C7.13558 30.0354 6.30755 30.0355 5.79687 29.5248L4.87219 28.6001C4.36152 28.0894 4.36155 27.2614 4.8722 26.7507L12.6197 19.0033H1.66304C0.940874 19.0033 0.355347 18.4178 0.355347 17.6956L0.355347 16.3879C0.355347 15.6657 0.940872 15.0802 1.66304 15.0802L12.6199 15.0802L4.87219 7.33251C4.36152 6.82183 4.36155 5.9938 4.8722 5.48315L5.79687 4.55848C6.30752 4.04783 7.13555 4.0478 7.64623 4.55848L15.3938 12.3061V1.34944C15.3938 0.627233 15.9793 0.041748 16.7015 0.041748L18.0092 0.0417487C18.7314 0.0417487 19.3169 0.627233 19.3169 1.34944V12.3061L27.0645 4.55848C27.5751 4.04783 28.4031 4.0478 28.9138 4.55848L29.8385 5.48315C30.3492 5.99383 30.3492 6.82186 29.8385 7.33251L22.0908 15.0802L33.0477 15.0802C33.7698 15.0802 34.3553 15.6657 34.3553 16.3879L34.3553 17.6956C34.3553 18.4178 33.7698 19.0033 33.0477 19.0033H22.091L29.8385 26.7507C30.3492 27.2614 30.3492 28.0895 29.8385 28.6001L28.9138 29.5248C28.4032 30.0354 27.5751 30.0355 27.0645 29.5248L19.3169 21.7772V32.7341C19.3169 33.4563 18.7314 34.0417 18.0092 34.0417H16.7015C15.9793 34.0417 15.3938 33.4563 15.3938 32.7341V21.7772L7.64623 29.5248Z" fill="fuchsia"/>
</svg>
