<svg width="36" height="36" viewBox="0 0 36 36" fill="none" xmlns="http://www.w3.org/2000/svg">
<path fill-rule="evenodd" clip-rule="evenodd" d="M24 10H12V26H24V10ZM12 8C10.8954 8 10 8.89543 10 10V26C10 27.1046 10.8954 28 12 28H24C25.1046 28 26 27.1046 26 26V10C26 8.89543 25.1046 8 24 8H12Z" fill="fuchsia"/>
<path fill-rule="evenodd" clip-rule="evenodd" d="M22 14H14V12.5H22V14Z" fill="fuchsia"/>
<path fill-rule="evenodd" clip-rule="evenodd" d="M22 17H14V15.5H22V17Z" fill="fuchsia"/>
<path fill-rule="evenodd" clip-rule="evenodd" d="M22 20H14V18.5H22V20Z" fill="fuchsia"/>
<path fill-rule="evenodd" clip-rule="evenodd" d="M22 23H14V21.5H22V23Z" fill="fuchsia"/>
</svg>
