<svg width="36" height="36" viewBox="0 0 36 36" fill="none" xmlns="http://www.w3.org/2000/svg">
<path fill-rule="evenodd" clip-rule="evenodd" d="M12.0235 25.4265L16.2438 17.7456L20.7973 22.2991L23.908 10.5064L19.6877 18.1873L15.1342 13.6338L12.0235 25.4265ZM19.2179 14.8891L22.1551 9.54326C22.6416 8.65786 23.712 8.27427 24.6501 8.64914C25.5882 9.02402 26.0995 10.0396 25.8418 11.0165L22.7312 22.8092C22.5486 23.5014 22.0099 24.0433 21.3187 24.2299C20.6275 24.4166 19.8893 24.2195 19.3831 23.7133L16.7136 21.0438L13.7763 26.3896C13.2899 27.275 12.2195 27.6586 11.2814 27.2837C10.3432 26.9089 9.83198 25.8932 10.0896 24.9164L13.2003 13.1237C13.3829 12.4314 13.9216 11.8896 14.6128 11.7029C15.3039 11.5163 16.0421 11.7133 16.5484 12.2196L19.2179 14.8891Z" fill="fuchsia"/>
</svg>
