<svg width="36" height="36" viewBox="0 0 36 36" fill="none" xmlns="http://www.w3.org/2000/svg">
<path fill-rule="evenodd" clip-rule="evenodd" d="M19.3353 15.7136L22.5933 9.78403C22.9582 9.11998 23.761 8.83229 24.4646 9.11344C25.1682 9.3946 25.5516 10.1563 25.3584 10.8889L22.2477 22.6817C22.1107 23.2008 21.7067 23.6072 21.1884 23.7472C20.67 23.8872 20.1163 23.7394 19.7366 23.3597L16.5961 20.2192L13.3381 26.1488C12.9733 26.8129 12.1705 27.1006 11.4669 26.8194C10.7633 26.5383 10.3799 25.7766 10.5731 25.0439L13.6838 13.2512C13.8207 12.732 14.2247 12.3256 14.7431 12.1857C15.2615 12.0457 15.8151 12.1934 16.1948 12.5731L19.3353 15.7136Z" fill="fuchsia"/>
</svg>
