<svg width="27" height="26" viewBox="0 0 27 26" fill="none" xmlns="http://www.w3.org/2000/svg">
<path d="M1.79699 25.5248C2.30767 26.0355 3.1357 26.0354 3.64635 25.5248L13.3555 15.8157L23.0646 25.5248C23.5753 26.0355 24.4033 26.0354 24.9139 25.5248L25.8386 24.6001C26.3493 24.0895 26.3493 23.2614 25.8386 22.7507L16.1295 13.0416L25.8386 3.33251C26.3493 2.82186 26.3493 1.99383 25.8386 1.48315L24.9139 0.558476C24.4033 0.0477981 23.5752 0.0478263 23.0646 0.558476L13.3555 10.2676L3.64635 0.558476C3.13567 0.0477981 2.30764 0.0478258 1.79699 0.558476L0.872314 1.48315C0.361664 1.9938 0.361637 2.82183 0.872315 3.33251L10.5814 13.0416L0.872316 22.7507C0.361666 23.2614 0.361637 24.0894 0.872314 24.6001L1.79699 25.5248Z" fill="fuchsia"/>
</svg>
