<svg width="36" height="36" viewBox="0 0 36 36" fill="none" xmlns="http://www.w3.org/2000/svg">
<mask id="path-1-inside-1_61_6001" fill="white">
<path d="M29.6956 18.265C30.1687 17.8655 30.1687 17.1364 29.6956 16.7369L21.0605 9.44516C20.4104 8.89619 19.4154 9.3583 19.4154 10.2092V13.6118H7.99347C7.44118 13.6118 6.99347 14.0595 6.99347 14.6118V20.3901C6.99347 20.9424 7.44118 21.3901 7.99347 21.3901H19.4154V24.7928C19.4154 25.6436 20.4104 26.1058 21.0605 25.5568L29.6956 18.265Z"/>
</mask>
<path d="M29.6956 16.7369L28.4053 18.265V18.265L29.6956 16.7369ZM29.6956 18.265L28.4053 16.7369L28.4053 16.7369L29.6956 18.265ZM21.0605 9.44516L19.7702 10.9732L19.7702 10.9732L21.0605 9.44516ZM19.4154 13.6118V15.6118H21.4154V13.6118H19.4154ZM19.4154 21.3901H21.4154V19.3901H19.4154V21.3901ZM21.0605 25.5568L19.7702 24.0287L19.7702 24.0287L21.0605 25.5568ZM28.4053 18.265C27.9322 17.8655 27.9322 17.1364 28.4053 16.7369L30.986 19.7931C32.4053 18.5946 32.4053 16.4074 30.986 15.2089L28.4053 18.265ZM19.7702 10.9732L28.4053 18.265L30.986 15.2089L22.3509 7.9171L19.7702 10.9732ZM21.4154 10.2092C21.4154 11.0601 20.4203 11.5222 19.7702 10.9732L22.3509 7.9171C20.4006 6.27017 17.4154 7.65651 17.4154 10.2092H21.4154ZM21.4154 13.6118V10.2092H17.4154V13.6118H21.4154ZM7.99347 15.6118H19.4154V11.6118H7.99347V15.6118ZM8.99347 14.6118C8.99347 15.1641 8.54575 15.6118 7.99347 15.6118V11.6118C6.33662 11.6118 4.99347 12.955 4.99347 14.6118H8.99347ZM8.99347 20.3901V14.6118H4.99347V20.3901H8.99347ZM7.99347 19.3901C8.54576 19.3901 8.99347 19.8378 8.99347 20.3901H4.99347C4.99347 22.047 6.33661 23.3901 7.99347 23.3901V19.3901ZM19.4154 19.3901H7.99347V23.3901H19.4154V19.3901ZM21.4154 24.7928V21.3901H17.4154V24.7928H21.4154ZM19.7702 24.0287C20.4203 23.4797 21.4154 23.9419 21.4154 24.7928H17.4154C17.4154 27.3454 20.4006 28.7318 22.3509 27.0849L19.7702 24.0287ZM28.4053 16.7369L19.7702 24.0287L22.3509 27.0849L30.986 19.7931L28.4053 16.7369Z" fill="fuchsia" mask="url(#path-1-inside-1_61_6001)"/>
</svg>
