<svg width="26" height="26" viewBox="0 0 26 26" fill="none" xmlns="http://www.w3.org/2000/svg">
<rect width="26" height="26" fill="white" style="mix-blend-mode:multiply"/>
<path fill-rule="evenodd" clip-rule="evenodd" d="M8.5 6.5C7.94772 6.5 7.5 6.94772 7.5 7.5V18C7.5 18.5523 7.94772 19 8.5 19C9.05228 19 9.5 18.5523 9.5 18V7.5C9.5 6.94772 9.05228 6.5 8.5 6.5ZM12 7.5C12 6.94772 12.4477 6.5 13 6.5C13.5523 6.5 14 6.94772 14 7.5V18C14 18.5523 13.5523 19 13 19C12.4477 19 12 18.5523 12 18V7.5ZM16.5 7.5C16.5 6.94772 16.9477 6.5 17.5 6.5C18.0523 6.5 18.5 6.94772 18.5 7.5V18C18.5 18.5523 18.0523 19 17.5 19C16.9477 19 16.5 18.5523 16.5 18V7.5Z" fill="#161616"/>
<path fill-rule="evenodd" clip-rule="evenodd" d="M8.5 6.6C8.00294 6.6 7.6 7.00294 7.6 7.5V18C7.6 18.4971 8.00294 18.9 8.5 18.9C8.99706 18.9 9.4 18.4971 9.4 18V7.5C9.4 7.00294 8.99706 6.6 8.5 6.6ZM13 6.6C12.5029 6.6 12.1 7.00294 12.1 7.5V18C12.1 18.4971 12.5029 18.9 13 18.9C13.4971 18.9 13.9 18.4971 13.9 18V7.5C13.9 7.00294 13.4971 6.6 13 6.6ZM17.5 6.6C17.0029 6.6 16.6 7.00294 16.6 7.5V18C16.6 18.4971 17.0029 18.9 17.5 18.9C17.9971 18.9 18.4 18.4971 18.4 18V7.5C18.4 7.00294 17.9971 6.6 17.5 6.6ZM7.5 7.5C7.5 6.94772 7.94772 6.5 8.5 6.5C9.05228 6.5 9.5 6.94772 9.5 7.5V18C9.5 18.5523 9.05228 19 8.5 19C7.94772 19 7.5 18.5523 7.5 18V7.5ZM13 6.5C12.4477 6.5 12 6.94772 12 7.5V18C12 18.5523 12.4477 19 13 19C13.5523 19 14 18.5523 14 18V7.5C14 6.94772 13.5523 6.5 13 6.5ZM17.5 6.5C16.9477 6.5 16.5 6.94772 16.5 7.5V18C16.5 18.5523 16.9477 19 17.5 19C18.0523 19 18.5 18.5523 18.5 18V7.5C18.5 6.94772 18.0523 6.5 17.5 6.5Z" fill="white"/>
</svg>
