<svg width="26" height="26" viewBox="0 0 26 26" fill="none" xmlns="http://www.w3.org/2000/svg">
<rect width="26" height="26" fill="white" style="mix-blend-mode:multiply"/>
<path fill-rule="evenodd" clip-rule="evenodd" d="M19.25 8.25C19.25 7.69772 18.8023 7.25 18.25 7.25L7.75 7.25C7.19771 7.25 6.75 7.69771 6.75 8.25C6.75 8.80228 7.19771 9.25 7.75 9.25L18.25 9.25C18.8023 9.25 19.25 8.80228 19.25 8.25ZM18.25 11.75C18.8023 11.75 19.25 12.1977 19.25 12.75C19.25 13.3023 18.8023 13.75 18.25 13.75L7.75 13.75C7.19771 13.75 6.75 13.3023 6.75 12.75C6.75 12.1977 7.19771 11.75 7.75 11.75L18.25 11.75ZM18.25 16.25C18.8023 16.25 19.25 16.6977 19.25 17.25C19.25 17.8023 18.8023 18.25 18.25 18.25L7.75 18.25C7.19771 18.25 6.75 17.8023 6.75 17.25C6.75 16.6977 7.19771 16.25 7.75 16.25L18.25 16.25Z" fill="#161616"/>
<path fill-rule="evenodd" clip-rule="evenodd" d="M19.15 8.25C19.15 7.75294 18.7471 7.35 18.25 7.35L7.75 7.35C7.25294 7.35 6.85 7.75294 6.85 8.25C6.85 8.74706 7.25294 9.15 7.75 9.15L18.25 9.15C18.7471 9.15 19.15 8.74706 19.15 8.25ZM19.15 12.75C19.15 12.2529 18.7471 11.85 18.25 11.85L7.75 11.85C7.25294 11.85 6.85 12.2529 6.85 12.75C6.85 13.2471 7.25294 13.65 7.75 13.65L18.25 13.65C18.7471 13.65 19.15 13.2471 19.15 12.75ZM19.15 17.25C19.15 16.7529 18.7471 16.35 18.25 16.35L7.75 16.35C7.25294 16.35 6.85 16.7529 6.85 17.25C6.85 17.7471 7.25294 18.15 7.75 18.15L18.25 18.15C18.7471 18.15 19.15 17.7471 19.15 17.25ZM18.25 7.25C18.8023 7.25 19.25 7.69772 19.25 8.25C19.25 8.80228 18.8023 9.25 18.25 9.25L7.75 9.25C7.19771 9.25 6.75 8.80228 6.75 8.25C6.75 7.69771 7.19771 7.25 7.75 7.25L18.25 7.25ZM19.25 12.75C19.25 12.1977 18.8023 11.75 18.25 11.75L7.75 11.75C7.19771 11.75 6.75 12.1977 6.75 12.75C6.75 13.3023 7.19771 13.75 7.75 13.75L18.25 13.75C18.8023 13.75 19.25 13.3023 19.25 12.75ZM19.25 17.25C19.25 16.6977 18.8023 16.25 18.25 16.25L7.75 16.25C7.19771 16.25 6.75 16.6977 6.75 17.25C6.75 17.8023 7.19771 18.25 7.75 18.25L18.25 18.25C18.8023 18.25 19.25 17.8023 19.25 17.25Z" fill="white"/>
</svg>
