<svg width="26" height="26" viewBox="0 0 26 26" fill="none" xmlns="http://www.w3.org/2000/svg">
<rect width="26" height="26" fill="white" style="mix-blend-mode:multiply"/>
<path d="M7.725 12.25C7.725 9.47477 9.97478 7.225 12.75 7.225C15.5252 7.225 17.775 9.47477 17.775 12.25C17.775 12.6504 18.0996 12.975 18.5 12.975C18.9004 12.975 19.225 12.6504 19.225 12.25C19.225 8.67395 16.326 5.775 12.75 5.775C9.17396 5.775 6.275 8.67395 6.275 12.25C6.275 15.826 9.17396 18.725 12.75 18.725H14.4V20.3981C14.4 20.9136 15.0071 21.1891 15.3951 20.8497L15.3293 20.7744L15.3951 20.8497L18.1358 18.4515C18.409 18.2125 18.409 17.7875 18.1358 17.5485L15.3951 15.1503C15.0071 14.8109 14.4 15.0864 14.4 15.6019V17.275H12.75C9.97478 17.275 7.725 15.0252 7.725 12.25Z" fill="#161616" stroke="#161616" stroke-width="0.2"/>
</svg>
