<svg width="26" height="26" viewBox="0 0 26 26" fill="none" xmlns="http://www.w3.org/2000/svg">
<path fill-rule="evenodd" clip-rule="evenodd" d="M13.9017 6.94506L13.6281 7.25019H21.5C22.7426 7.25019 23.75 8.25755 23.75 9.50019C23.75 9.85685 23.667 10.1941 23.5193 10.4938C24.2497 10.8656 24.75 11.6245 24.75 12.5002C24.75 13.3759 24.2497 14.1348 23.5193 14.5066C23.667 14.8062 23.75 15.1435 23.75 15.5002C23.75 16.7023 22.8073 17.6842 21.6208 17.747C21.7045 17.9825 21.75 18.236 21.75 18.5002C21.75 19.7428 20.7426 20.7502 19.5 20.7502H7C3.82436 20.7502 1.25 18.1758 1.25 15.0002V13.0002C1.25 10.9141 2.36132 9.08835 4.02076 8.08134C4.07871 8.0315 4.13926 7.98424 4.2023 7.93978L10.7064 3.35296C11.8015 2.58069 13.3157 2.84569 14.0834 3.94397C14.7273 4.8651 14.652 6.10834 13.9017 6.94506ZM11.5709 4.5788C11.9869 4.28537 12.5623 4.38606 12.854 4.80335C13.0986 5.15334 13.07 5.62571 12.7849 5.94363L11.423 7.46244L11.4203 7.46545L10.2556 8.75019H21.5C21.9142 8.75019 22.25 9.08598 22.25 9.50019C22.25 9.90874 21.9233 10.241 21.517 10.25H13C12.5858 10.25 12.25 10.5858 12.25 11C12.25 11.4142 12.5858 11.75 13 11.75L22.5 11.7502C22.9142 11.7502 23.25 12.086 23.25 12.5002C23.25 12.9144 22.9142 13.2502 22.5 13.2502L13 13.25C12.5858 13.25 12.25 13.5858 12.25 14C12.25 14.4142 12.5858 14.75 13 14.75H21.5C21.9142 14.75 22.25 15.086 22.25 15.5002C22.25 15.9144 21.9142 16.2502 21.5 16.2502L13 16.25C12.5858 16.25 12.25 16.5858 12.25 17C12.25 17.4142 12.5858 17.75 13 17.75H19.5C19.9142 17.75 20.25 18.086 20.25 18.5002C20.25 18.9144 19.9142 19.2502 19.5 19.2502H7C4.65279 19.2502 2.75 17.3474 2.75 15.0002V13.0002C2.75 11.4399 3.59042 10.075 4.84687 9.33504L4.91619 9.29422L4.97528 9.23962C5.0039 9.21316 5.03444 9.18843 5.06678 9.16562L11.5709 4.5788Z" fill="fuchsia"/>
</svg>
