<svg width="36" height="36" viewBox="0 0 36 36" fill="none" xmlns="http://www.w3.org/2000/svg">
<path d="M29.0005 17.3125C29.0005 16.5531 28.3849 15.9375 27.6255 15.9375H20.063L20.063 8.375C20.063 7.61561 19.4474 7 18.688 7L17.313 7C16.5536 7 15.938 7.61561 15.938 8.375L15.938 15.9375H8.37549C7.6161 15.9375 7.00049 16.5531 7.00049 17.3125L7.00049 18.6875C7.00049 19.4469 7.6161 20.0625 8.37549 20.0625L15.938 20.0625L15.938 27.625C15.938 28.3844 16.5536 29 17.313 29H18.688C19.4474 29 20.063 28.3844 20.063 27.625L20.063 20.0625H27.6255C28.3849 20.0625 29.0005 19.4469 29.0005 18.6875L29.0005 17.3125Z" stroke="fuchsia" stroke-width="2"/>
</svg>
