<svg width="35" height="35" viewBox="0 0 35 35" fill="none" xmlns="http://www.w3.org/2000/svg">
<path d="M18.0093 34.0416C18.7315 34.0416 19.317 33.4561 19.317 32.7339V19.0032H33.0478C33.77 19.0032 34.3555 18.4176 34.3555 17.6955V16.3878C34.3555 15.6656 33.77 15.0801 33.0478 15.0801H19.317V1.34932C19.317 0.62715 18.7315 0.041626 18.0093 0.041626H16.7016C15.9794 0.041626 15.3939 0.62715 15.3939 1.34932V15.0801H1.66316C0.940953 15.0801 0.355469 15.6656 0.355469 16.3878V17.6955C0.355469 18.4176 0.940953 19.0032 1.66316 19.0032H15.3939V32.7339C15.3939 33.4561 15.9794 34.0416 16.7016 34.0416H18.0093Z" fill="fuchsia"/>
</svg>
