<svg width="26" height="26" viewBox="0 0 26 26" fill="none" xmlns="http://www.w3.org/2000/svg">
<path fill-rule="evenodd" clip-rule="evenodd" d="M3 7C3 5.89543 3.89543 5 5 5H21C22.1046 5 23 5.89543 23 7V18C23 19.1046 22.1046 20 21 20H5C3.89543 20 3 19.1046 3 18V7ZM5 6.5H21C21.1327 6.5 21.2534 6.55171 21.3429 6.63609L13.1059 10.5205C13.0384 10.5523 12.9602 10.5523 12.8926 10.5205L4.65664 6.63654C4.7462 6.5519 4.86704 6.5 5 6.5ZM4.5 8.2211V18C4.5 18.2761 4.72386 18.5 5 18.5H21C21.2761 18.5 21.5 18.2761 21.5 18V8.22042L13.7457 11.8772C13.273 12.1001 12.7255 12.1001 12.2529 11.8772L4.5 8.2211Z" fill="fuchsia"/>
</svg>
