<svg width="26" height="26" viewBox="0 0 26 26" fill="none" xmlns="http://www.w3.org/2000/svg">
<rect width="26" height="26" fill="white" style="mix-blend-mode:multiply"/>
<mask id="path-2-outside-1_61_6770" maskUnits="userSpaceOnUse" x="3" y="3" width="20" height="20" fill="black">
<rect fill="white" x="3" y="3" width="20" height="20"/>
<path fill-rule="evenodd" clip-rule="evenodd" d="M5.88673 5.125C5.55957 6.00586 5.125 7.40572 5.125 8.5C5.125 9.30484 5.36284 10.2961 5.63403 11.1441C5.76569 11.5558 5.89762 11.9107 5.99627 12.1617C6.04546 12.2869 6.08604 12.3854 6.11371 12.4512C6.12754 12.4841 6.13812 12.5087 6.1449 12.5244L6.15216 12.5411L6.15342 12.544C6.15342 12.544 6.1533 12.5437 5.125 13C5.125 13 4 10.4648 4 8.5C4 7.16443 4.51982 5.5653 4.85276 4.67803C5.00904 4.26156 5.41175 4 5.85657 4H19.145C19.9588 4 20.5207 4.84551 20.278 5.62233C20.0087 6.48441 19.75 7.55779 19.75 8.5C19.75 10.4648 20.875 13 20.875 13C19.8467 13.4563 19.8466 13.456 19.8466 13.456L19.8448 13.4521L19.8414 13.4443L19.8298 13.4177C19.8201 13.3953 19.8065 13.3636 19.7896 13.3233C19.7558 13.2428 19.7084 13.1278 19.6522 12.9847C19.5399 12.6989 19.3906 12.2972 19.241 11.8295C18.9497 10.9187 18.625 9.65994 18.625 8.5C18.625 7.38568 18.9244 6.18249 19.2042 5.28689C19.2153 5.25117 19.211 5.20146 19.1803 5.15675C19.1666 5.13681 19.1542 5.12829 19.1501 5.12597L19.1495 5.12559C19.1495 5.12559 19.1485 5.125 19.145 5.125H5.88673ZM20.1133 20.875H6.85501C6.85149 20.875 6.85055 20.8744 6.85055 20.8744L6.84993 20.874C6.84578 20.8717 6.83337 20.8632 6.81968 20.8433C6.78897 20.7985 6.78467 20.7488 6.79582 20.7131C7.07559 19.8175 7.375 18.6143 7.375 17.5C7.375 16.3401 7.05034 15.0813 6.75903 14.1705C6.60944 13.7028 6.46012 13.3011 6.34783 13.0153C6.29156 12.8722 6.24425 12.7572 6.21039 12.6767C6.19346 12.6364 6.17986 12.6047 6.17017 12.5823L6.15861 12.5557L6.15515 12.5479L6.15402 12.5453L6.15342 12.544C6.15342 12.544 6.1533 12.5437 5.125 13C5.125 13 6.25 15.5352 6.25 17.5C6.25 18.4422 5.99129 19.5156 5.722 20.3777C5.47934 21.1545 6.04117 22 6.85501 22H20.1434C20.5883 22 20.991 21.7384 21.1472 21.322C21.4802 20.4347 22 18.8356 22 17.5C22 15.5352 20.875 13 20.875 13C19.8467 13.4563 19.8466 13.456 19.8466 13.456L19.8478 13.4589L19.8551 13.4756C19.8619 13.4913 19.8725 13.5159 19.8863 13.5488C19.914 13.6146 19.9545 13.7131 20.0037 13.8383C20.1024 14.0893 20.2343 14.4442 20.366 14.8559C20.6372 15.7039 20.875 16.6952 20.875 17.5C20.875 18.5943 20.4404 19.9941 20.1133 20.875Z"/>
</mask>
<path fill-rule="evenodd" clip-rule="evenodd" d="M5.88673 5.125C5.55957 6.00586 5.125 7.40572 5.125 8.5C5.125 9.30484 5.36284 10.2961 5.63403 11.1441C5.76569 11.5558 5.89762 11.9107 5.99627 12.1617C6.04546 12.2869 6.08604 12.3854 6.11371 12.4512C6.12754 12.4841 6.13812 12.5087 6.1449 12.5244L6.15216 12.5411L6.15342 12.544C6.15342 12.544 6.1533 12.5437 5.125 13C5.125 13 4 10.4648 4 8.5C4 7.16443 4.51982 5.5653 4.85276 4.67803C5.00904 4.26156 5.41175 4 5.85657 4H19.145C19.9588 4 20.5207 4.84551 20.278 5.62233C20.0087 6.48441 19.75 7.55779 19.75 8.5C19.75 10.4648 20.875 13 20.875 13C19.8467 13.4563 19.8466 13.456 19.8466 13.456L19.8448 13.4521L19.8414 13.4443L19.8298 13.4177C19.8201 13.3953 19.8065 13.3636 19.7896 13.3233C19.7558 13.2428 19.7084 13.1278 19.6522 12.9847C19.5399 12.6989 19.3906 12.2972 19.241 11.8295C18.9497 10.9187 18.625 9.65994 18.625 8.5C18.625 7.38568 18.9244 6.18249 19.2042 5.28689C19.2153 5.25117 19.211 5.20146 19.1803 5.15675C19.1666 5.13681 19.1542 5.12829 19.1501 5.12597L19.1495 5.12559C19.1495 5.12559 19.1485 5.125 19.145 5.125H5.88673ZM20.1133 20.875H6.85501C6.85149 20.875 6.85055 20.8744 6.85055 20.8744L6.84993 20.874C6.84578 20.8717 6.83337 20.8632 6.81968 20.8433C6.78897 20.7985 6.78467 20.7488 6.79582 20.7131C7.07559 19.8175 7.375 18.6143 7.375 17.5C7.375 16.3401 7.05034 15.0813 6.75903 14.1705C6.60944 13.7028 6.46012 13.3011 6.34783 13.0153C6.29156 12.8722 6.24425 12.7572 6.21039 12.6767C6.19346 12.6364 6.17986 12.6047 6.17017 12.5823L6.15861 12.5557L6.15515 12.5479L6.15402 12.5453L6.15342 12.544C6.15342 12.544 6.1533 12.5437 5.125 13C5.125 13 6.25 15.5352 6.25 17.5C6.25 18.4422 5.99129 19.5156 5.722 20.3777C5.47934 21.1545 6.04117 22 6.85501 22H20.1434C20.5883 22 20.991 21.7384 21.1472 21.322C21.4802 20.4347 22 18.8356 22 17.5C22 15.5352 20.875 13 20.875 13C19.8467 13.4563 19.8466 13.456 19.8466 13.456L19.8478 13.4589L19.8551 13.4756C19.8619 13.4913 19.8725 13.5159 19.8863 13.5488C19.914 13.6146 19.9545 13.7131 20.0037 13.8383C20.1024 14.0893 20.2343 14.4442 20.366 14.8559C20.6372 15.7039 20.875 16.6952 20.875 17.5C20.875 18.5943 20.4404 19.9941 20.1133 20.875Z" fill="fuchsia"/>
<path d="M5.16556 13.0914C5.67971 12.8633 5.93679 12.7492 6.06534 12.6923C6.12961 12.6638 6.16173 12.6496 6.17775 12.6425C6.18578 12.639 6.18973 12.6372 6.19164 12.6364C6.19262 12.6359 6.19297 12.6358 6.19303 12.6358C6.1931 12.6357 6.19286 12.6358 6.19251 12.636C6.19241 12.636 6.19182 12.6363 6.19104 12.6366C6.19082 12.6367 6.1896 12.6372 6.18803 12.6378C6.18757 12.6379 6.18513 12.6388 6.18195 12.6398C6.17891 12.6406 6.17284 12.642 6.16981 12.6426C6.10596 12.632 6.062 12.5845 6.15342 12.544C6.24484 12.5034 6.20087 12.4559 6.13703 12.4453C6.134 12.4459 6.12792 12.4473 6.12489 12.4481C6.12171 12.4491 6.11926 12.45 6.1188 12.4501C6.11723 12.4507 6.11601 12.4512 6.11579 12.4513C6.115 12.4516 6.11439 12.4519 6.11426 12.4519C6.11385 12.4521 6.11348 12.4523 6.1133 12.4523C6.11286 12.4525 6.1122 12.4528 6.11117 12.4533C6.10906 12.4542 6.10496 12.456 6.09691 12.4596C6.08078 12.4667 6.0486 12.4809 5.98431 12.5094C5.85572 12.5664 5.59859 12.6804 5.08444 12.9086L5.16556 13.0914ZM19.8466 13.456C19.7551 13.4965 19.7968 13.5427 19.8577 13.5554C19.8614 13.5549 19.8687 13.5535 19.8724 13.5526C19.8763 13.5516 19.8793 13.5505 19.8798 13.5503C19.8818 13.5496 19.8833 13.549 19.8835 13.5489C19.8845 13.5485 19.8852 13.5482 19.8854 13.5481C19.8859 13.5479 19.8863 13.5477 19.8865 13.5477C19.887 13.5474 19.8877 13.5471 19.8887 13.5467C19.8909 13.5458 19.895 13.5439 19.903 13.5404C19.9192 13.5333 19.9514 13.519 20.0157 13.4905C20.1443 13.4336 20.4014 13.3196 20.9156 13.0914L20.8344 12.9086C20.3203 13.1367 20.0632 13.2507 19.9347 13.3077C19.8704 13.3362 19.8383 13.3504 19.8223 13.3574C19.8142 13.361 19.8103 13.3627 19.8084 13.3635C19.8079 13.3637 19.8076 13.3639 19.8074 13.364C19.8072 13.3641 19.8071 13.3641 19.8071 13.3641C19.8071 13.3641 19.8072 13.3641 19.8073 13.364C19.8073 13.364 19.8075 13.3639 19.8078 13.3638C19.8079 13.3638 19.8086 13.3635 19.8096 13.3631C19.8099 13.363 19.8113 13.3624 19.8133 13.3617C19.8138 13.3615 19.8168 13.3604 19.8207 13.3594C19.8244 13.3585 19.8317 13.3571 19.8354 13.3566C19.8963 13.3693 19.938 13.4155 19.8466 13.456ZM5.88673 5.125V4.925H5.74767L5.69925 5.05536L5.88673 5.125ZM5.63403 11.1441L5.82453 11.0832L5.63403 11.1441ZM5.99627 12.1617L6.18241 12.0885L5.99627 12.1617ZM6.11371 12.4512L6.29808 12.3737L6.29808 12.3737L6.11371 12.4512ZM6.1449 12.5244L5.96134 12.6038L5.96151 12.6042L6.1449 12.5244ZM6.15216 12.5411L5.96876 12.6209L5.96902 12.6215L6.15216 12.5411ZM6.15342 12.544L5.97028 12.6243L5.97056 12.625L6.15342 12.544ZM5.125 13L4.94219 13.0811L5.125 13ZM4.85276 4.67803L5.04001 4.74829L4.85276 4.67803ZM20.278 5.62233L20.0871 5.5627V5.5627L20.278 5.62233ZM20.875 13L20.6922 13.0811L20.875 13ZM19.8466 13.456L20.0297 13.3756L20.0295 13.3751L19.8466 13.456ZM19.8448 13.4521L19.6618 13.5326L19.6619 13.533L19.8448 13.4521ZM19.8414 13.4443L19.658 13.5241L19.6583 13.5247L19.8414 13.4443ZM19.8298 13.4177L19.6463 13.4971L19.6464 13.4975L19.8298 13.4177ZM19.7896 13.3233L19.6052 13.4008L19.7896 13.3233ZM19.6522 12.9847L19.466 13.0578L19.6522 12.9847ZM19.241 11.8295L19.4315 11.7686V11.7686L19.241 11.8295ZM19.2042 5.28689L19.0133 5.22725L19.0133 5.22726L19.2042 5.28689ZM19.1803 5.15675L19.0155 5.26997L19.0155 5.26997L19.1803 5.15675ZM19.1501 5.12597L19.0469 5.29744L19.0524 5.3005L19.1501 5.12597ZM19.1495 5.12559L19.0425 5.29463L19.0464 5.29698L19.1495 5.12559ZM20.1133 20.875V21.075H20.2523L20.3008 20.9446L20.1133 20.875ZM6.85055 20.8744L6.95747 20.7053L6.95377 20.7031L6.85055 20.8744ZM6.84993 20.874L6.95321 20.7026L6.94761 20.6995L6.84993 20.874ZM6.81968 20.8433L6.98454 20.73L6.98454 20.73L6.81968 20.8433ZM6.79582 20.7131L6.60492 20.6535H6.60492L6.79582 20.7131ZM6.75903 14.1705L6.56854 14.2314H6.56854L6.75903 14.1705ZM6.34783 13.0153L6.53397 12.9422L6.34783 13.0153ZM6.21039 12.6767L6.39476 12.5992L6.21039 12.6767ZM6.17017 12.5823L6.35373 12.5029L6.35356 12.5025L6.17017 12.5823ZM6.15861 12.5557L6.342 12.4759L6.34171 12.4753L6.15861 12.5557ZM6.15515 12.5479L6.33824 12.4674L6.3381 12.4671L6.15515 12.5479ZM6.15402 12.5453L6.33697 12.4645L6.33688 12.4643L6.15402 12.5453ZM5.722 20.3777L5.9129 20.4373L5.722 20.3777ZM21.1472 21.322L20.96 21.2517L21.1472 21.322ZM19.8478 13.4589L20.0312 13.3791L20.031 13.3785L19.8478 13.4589ZM19.8551 13.4756L20.0387 13.3962L20.0385 13.3958L19.8551 13.4756ZM19.8863 13.5488L19.7019 13.6263L19.7019 13.6263L19.8863 13.5488ZM20.0037 13.8383L19.8176 13.9115V13.9115L20.0037 13.8383ZM20.366 14.8559L20.5565 14.795V14.795L20.366 14.8559ZM5.325 8.5C5.325 7.44437 5.74775 6.07362 6.07422 5.19464L5.69925 5.05536C5.37138 5.9381 4.925 7.36708 4.925 8.5H5.325ZM5.82453 11.0832C5.55509 10.2407 5.325 9.27324 5.325 8.5H4.925C4.925 9.33645 5.17058 10.3515 5.44354 11.205L5.82453 11.0832ZM6.18241 12.0885C6.08497 11.8406 5.95459 11.4898 5.82453 11.0832L5.44354 11.205C5.57679 11.6217 5.71026 11.9807 5.81013 12.2348L6.18241 12.0885ZM6.29808 12.3737C6.27096 12.3092 6.23098 12.2121 6.18241 12.0885L5.81013 12.2348C5.85995 12.3616 5.90113 12.4616 5.92935 12.5287L6.29808 12.3737ZM6.32846 12.445C6.32194 12.4299 6.31163 12.4059 6.29808 12.3737L5.92935 12.5287C5.94345 12.5622 5.9543 12.5875 5.96134 12.6038L6.32846 12.445ZM6.33555 12.4613L6.3283 12.4446L5.96151 12.6042L5.96876 12.6209L6.33555 12.4613ZM6.33655 12.4636L6.33529 12.4607L5.96902 12.6215L5.97029 12.6243L6.33655 12.4636ZM5.125 13C5.30781 12.9189 5.30782 12.9189 5.30782 12.9189C5.30781 12.9189 5.30781 12.9189 5.3078 12.9189C5.30778 12.9188 5.30775 12.9187 5.3077 12.9186C5.30759 12.9184 5.30742 12.918 5.30718 12.9174C5.3067 12.9164 5.30595 12.9147 5.30495 12.9124C5.30295 12.9078 5.29992 12.9009 5.29593 12.8916C5.28795 12.8732 5.27613 12.8456 5.26103 12.8097C5.23081 12.7379 5.18747 12.6326 5.13536 12.5C5.0311 12.2347 4.89203 11.8606 4.75299 11.4259C4.47353 10.5521 4.2 9.45083 4.2 8.5H3.8C3.8 9.51396 4.08897 10.6627 4.37201 11.5477C4.51422 11.9924 4.6564 12.3749 4.76308 12.6463C4.81644 12.7821 4.86098 12.8903 4.89229 12.9647C4.90795 13.002 4.92031 13.0308 4.9288 13.0505C4.93305 13.0603 4.93634 13.0678 4.93859 13.0729C4.93972 13.0755 4.94059 13.0775 4.94119 13.0789C4.94149 13.0795 4.94173 13.0801 4.94189 13.0805C4.94198 13.0806 4.94204 13.0808 4.94209 13.0809C4.94212 13.081 4.94214 13.081 4.94215 13.081C4.94217 13.0811 4.94219 13.0811 5.125 13ZM4.2 8.5C4.2 7.20348 4.70775 5.63374 5.04001 4.74829L4.66551 4.60776C4.33188 5.49686 3.8 7.12539 3.8 8.5H4.2ZM5.04001 4.74829C5.1651 4.41495 5.48953 4.2 5.85657 4.2V3.8C5.33397 3.8 4.85298 4.10816 4.66551 4.60776L5.04001 4.74829ZM5.85657 4.2H19.145V3.8H5.85657V4.2ZM19.145 4.2C19.8096 4.2 20.2939 4.90066 20.0871 5.5627L20.4689 5.68196C20.7474 4.79037 20.1081 3.8 19.145 3.8V4.2ZM20.0871 5.5627C19.8159 6.43073 19.55 7.52719 19.55 8.5H19.95C19.95 7.58839 20.2015 6.53808 20.4689 5.68196L20.0871 5.5627ZM19.55 8.5C19.55 9.51396 19.839 10.6627 20.122 11.5477C20.2642 11.9924 20.4064 12.3749 20.5131 12.6463C20.5664 12.7821 20.611 12.8903 20.6423 12.9647C20.658 13.002 20.6703 13.0308 20.6788 13.0505C20.6831 13.0603 20.6863 13.0678 20.6886 13.0729C20.6897 13.0755 20.6906 13.0775 20.6912 13.0789C20.6915 13.0795 20.6917 13.0801 20.6919 13.0805C20.692 13.0806 20.692 13.0808 20.6921 13.0809C20.6921 13.081 20.6921 13.081 20.6922 13.081C20.6922 13.0811 20.6922 13.0811 20.875 13C21.0578 12.9189 21.0578 12.9189 21.0578 12.9189C21.0578 12.9189 21.0578 12.9189 21.0578 12.9189C21.0578 12.9188 21.0577 12.9187 21.0577 12.9186C21.0576 12.9184 21.0574 12.918 21.0572 12.9174C21.0567 12.9164 21.056 12.9147 21.055 12.9124C21.0529 12.9078 21.0499 12.9009 21.0459 12.8916C21.0379 12.8732 21.0261 12.8456 21.011 12.8097C20.9808 12.7379 20.9375 12.6326 20.8854 12.5C20.7811 12.2347 20.642 11.8606 20.503 11.4259C20.2235 10.5521 19.95 9.45083 19.95 8.5H19.55ZM19.6583 13.5247L19.6618 13.5326L20.0279 13.3717L20.0245 13.3638L19.6583 13.5247ZM19.6464 13.4975L19.658 13.5241L20.0248 13.3644L20.0132 13.3379L19.6464 13.4975ZM19.6052 13.4008C19.6225 13.4417 19.6363 13.4741 19.6463 13.4971L20.0134 13.3383C20.004 13.3165 19.9906 13.2854 19.974 13.2458L19.6052 13.4008ZM19.466 13.0578C19.5229 13.2026 19.5708 13.319 19.6052 13.4008L19.974 13.2458C19.9407 13.1666 19.894 13.0531 19.8383 12.9115L19.466 13.0578ZM19.0505 11.8904C19.2017 12.3631 19.3525 12.769 19.466 13.0578L19.8383 12.9115C19.7272 12.6289 19.5795 12.2313 19.4315 11.7686L19.0505 11.8904ZM18.425 8.5C18.425 9.69147 18.7574 10.9739 19.0505 11.8904L19.4315 11.7686C19.142 10.8634 18.825 9.62841 18.825 8.5H18.425ZM19.0133 5.22726C18.7316 6.12887 18.425 7.35511 18.425 8.5H18.825C18.825 7.41624 19.1172 6.23611 19.3951 5.34652L19.0133 5.22726ZM19.0155 5.26997C19.0136 5.2672 19.0114 5.26259 19.0104 5.25613C19.0095 5.25044 19.0091 5.24067 19.0133 5.22725L19.3951 5.34653C19.425 5.25061 19.4097 5.13739 19.3452 5.04352L19.0155 5.26997ZM19.0524 5.3005C19.0397 5.29337 19.0312 5.28657 19.0261 5.28185C19.0204 5.27661 19.0171 5.27237 19.0155 5.26997L19.3452 5.04352C19.3149 4.99937 19.2798 4.9694 19.2477 4.95144L19.0524 5.3005ZM19.0464 5.29698L19.047 5.29736L19.2531 4.95458L19.2525 4.9542L19.0464 5.29698ZM19.145 5.325C19.136 5.325 19.1222 5.32429 19.1055 5.32062C19.097 5.31875 19.0872 5.31598 19.0767 5.31186C19.0713 5.30979 19.0658 5.30736 19.0601 5.30451C19.0572 5.30308 19.0543 5.30154 19.0514 5.29989C19.0499 5.29907 19.0484 5.29821 19.0469 5.29733C19.0462 5.29688 19.0455 5.29643 19.0447 5.29598C19.0443 5.29575 19.044 5.29552 19.0436 5.29529C19.0434 5.29517 19.0432 5.29505 19.043 5.29494C19.0429 5.29488 19.0428 5.29479 19.0428 5.29476C19.0426 5.29467 19.0425 5.29458 19.1495 5.12559C19.2564 4.9566 19.2563 4.95652 19.2561 4.95643C19.2561 4.9564 19.256 4.95631 19.2559 4.95625C19.2557 4.95614 19.2555 4.95602 19.2553 4.9559C19.2549 4.95567 19.2546 4.95544 19.2542 4.95521C19.2534 4.95475 19.2527 4.9543 19.252 4.95386C19.2505 4.95297 19.249 4.95211 19.2475 4.95128C19.2446 4.94962 19.2416 4.94807 19.2387 4.94663C19.233 4.94374 19.2273 4.94126 19.2218 4.93914C19.211 4.93491 19.2007 4.932 19.1915 4.92997C19.1735 4.92601 19.1575 4.925 19.145 4.925V5.325ZM5.88673 5.325H19.145V4.925H5.88673V5.325ZM20.1133 20.675H6.85501V21.075H20.1133V20.675ZM6.85501 20.675C6.86399 20.675 6.87778 20.6757 6.89445 20.6794C6.90295 20.6812 6.91274 20.684 6.92331 20.6881C6.92861 20.6902 6.93416 20.6926 6.93988 20.6955C6.94274 20.6969 6.94564 20.6984 6.94857 20.7001C6.95004 20.7009 6.95151 20.7018 6.95299 20.7026C6.95373 20.7031 6.95447 20.7035 6.95522 20.704C6.95559 20.7042 6.95596 20.7044 6.95633 20.7047C6.95652 20.7048 6.9567 20.7049 6.95689 20.705C6.95698 20.7051 6.95712 20.7052 6.95717 20.7052C6.95731 20.7053 6.95745 20.7054 6.85055 20.8744C6.74365 21.0434 6.74379 21.0435 6.74393 21.0436C6.74397 21.0436 6.74411 21.0437 6.74421 21.0438C6.74439 21.0439 6.74458 21.044 6.74476 21.0441C6.74514 21.0444 6.74551 21.0446 6.74588 21.0448C6.74662 21.0453 6.74737 21.0457 6.74811 21.0462C6.74959 21.0471 6.75107 21.0479 6.75255 21.0487C6.75549 21.0504 6.75842 21.052 6.76131 21.0534C6.76709 21.0563 6.77274 21.0588 6.77819 21.0609C6.78905 21.0651 6.79929 21.068 6.80847 21.07C6.82648 21.074 6.84251 21.075 6.85501 21.075V20.675ZM6.95377 20.7031L6.95315 20.7027L6.7467 21.0453L6.74732 21.0457L6.95377 20.7031ZM6.94761 20.6995C6.96034 20.7066 6.96876 20.7134 6.97389 20.7182C6.97957 20.7234 6.9829 20.7276 6.98454 20.73L6.65481 20.9565C6.68514 21.0006 6.72016 21.0306 6.75225 21.0486L6.94761 20.6995ZM6.98454 20.73C6.98644 20.7328 6.98863 20.7374 6.98964 20.7439C6.99053 20.7496 6.99092 20.7593 6.98673 20.7727L6.60492 20.6535C6.57496 20.7494 6.59035 20.8626 6.65481 20.9565L6.98454 20.73ZM6.98672 20.7727C7.26837 19.8711 7.575 18.6449 7.575 17.5H7.175C7.175 18.5838 6.88281 19.7639 6.60492 20.6535L6.98672 20.7727ZM7.575 17.5C7.575 16.3085 7.24264 15.0261 6.94953 14.1096L6.56854 14.2314C6.85804 15.1366 7.175 16.3716 7.175 17.5H7.575ZM6.94953 14.1096C6.79834 13.6369 6.64747 13.231 6.53397 12.9422L6.16169 13.0885C6.27276 13.3711 6.42054 13.7687 6.56854 14.2314L6.94953 14.1096ZM6.53397 12.9422C6.47707 12.7974 6.42916 12.681 6.39476 12.5992L6.02603 12.7542C6.05933 12.8334 6.10604 12.9469 6.16169 13.0885L6.53397 12.9422ZM6.39476 12.5992C6.37755 12.5583 6.36369 12.5259 6.35373 12.5029L5.98661 12.6617C5.99604 12.6835 6.00937 12.7146 6.02603 12.7542L6.39476 12.5992ZM6.35356 12.5025L6.342 12.4759L5.97522 12.6356L5.98678 12.6621L6.35356 12.5025ZM6.34171 12.4753L6.33824 12.4674L5.97206 12.6283L5.97552 12.6362L6.34171 12.4753ZM6.3381 12.4671L6.33697 12.4645L5.97107 12.6261L5.9722 12.6287L6.3381 12.4671ZM6.33688 12.4643L6.33628 12.4629L5.97056 12.625L5.97116 12.6263L6.33688 12.4643ZM6.45 17.5C6.45 16.486 6.16103 15.3373 5.87799 14.4523C5.73578 14.0076 5.5936 13.6251 5.48692 13.3537C5.43356 13.2179 5.38902 13.1097 5.35771 13.0353C5.34205 12.998 5.32969 12.9692 5.3212 12.9495C5.31695 12.9397 5.31366 12.9322 5.31141 12.9271C5.31028 12.9245 5.30941 12.9225 5.30881 12.9211C5.30851 12.9205 5.30827 12.9199 5.30811 12.9195C5.30802 12.9194 5.30796 12.9192 5.30791 12.9191C5.30788 12.919 5.30786 12.919 5.30784 12.919C5.30783 12.9189 5.30781 12.9189 5.125 13C4.94219 13.0811 4.94218 13.0811 4.94218 13.0811C4.94219 13.0811 4.94219 13.0811 4.9422 13.0811C4.94222 13.0812 4.94225 13.0813 4.9423 13.0814C4.94241 13.0816 4.94258 13.082 4.94282 13.0826C4.9433 13.0836 4.94405 13.0853 4.94505 13.0876C4.94705 13.0922 4.95008 13.0991 4.95407 13.1084C4.96205 13.1268 4.97387 13.1544 4.98897 13.1903C5.01919 13.2621 5.06253 13.3674 5.11464 13.5C5.2189 13.7653 5.35797 14.1394 5.49701 14.5741C5.77647 15.4479 6.05 16.5492 6.05 17.5H6.45ZM5.9129 20.4373C6.18405 19.5693 6.45 18.4728 6.45 17.5H6.05C6.05 18.4116 5.79852 19.4619 5.53109 20.318L5.9129 20.4373ZM6.85501 21.8C6.19042 21.8 5.70609 21.0993 5.9129 20.4373L5.53109 20.318C5.25258 21.2096 5.89193 22.2 6.85501 22.2V21.8ZM20.1434 21.8H6.85501V22.2H20.1434V21.8ZM20.96 21.2517C20.8349 21.585 20.5105 21.8 20.1434 21.8V22.2C20.666 22.2 21.147 21.8918 21.3345 21.3922L20.96 21.2517ZM21.8 17.5C21.8 18.7965 21.2922 20.3663 20.96 21.2517L21.3345 21.3922C21.6681 20.5031 22.2 18.8746 22.2 17.5H21.8ZM20.875 13C20.6922 13.0811 20.6922 13.0811 20.6922 13.0811C20.6922 13.0811 20.6922 13.0811 20.6922 13.0811C20.6922 13.0812 20.6923 13.0813 20.6923 13.0814C20.6924 13.0816 20.6926 13.082 20.6928 13.0826C20.6933 13.0836 20.694 13.0853 20.695 13.0876C20.6971 13.0922 20.7001 13.0991 20.7041 13.1084C20.7121 13.1268 20.7239 13.1544 20.739 13.1903C20.7692 13.2621 20.8125 13.3674 20.8646 13.5C20.9689 13.7653 21.108 14.1394 21.247 14.5741C21.5265 15.4479 21.8 16.5492 21.8 17.5H22.2C22.2 16.486 21.911 15.3373 21.628 14.4523C21.4858 14.0076 21.3436 13.6251 21.2369 13.3537C21.1836 13.2179 21.139 13.1097 21.1077 13.0353C21.092 12.998 21.0797 12.9692 21.0712 12.9495C21.0669 12.9397 21.0637 12.9322 21.0614 12.9271C21.0603 12.9245 21.0594 12.9225 21.0588 12.9211C21.0585 12.9205 21.0583 12.9199 21.0581 12.9195C21.058 12.9194 21.058 12.9192 21.0579 12.9191C21.0579 12.919 21.0579 12.919 21.0578 12.919C21.0578 12.9189 21.0578 12.9189 20.875 13ZM19.6634 13.5364L19.6647 13.5393L20.031 13.3785L20.0297 13.3756L19.6634 13.5364ZM19.6644 13.5387L19.6717 13.5554L20.0385 13.3958L20.0312 13.3791L19.6644 13.5387ZM19.6715 13.555C19.6781 13.5701 19.6884 13.5941 19.7019 13.6263L20.0707 13.4713C20.0565 13.4378 20.0457 13.4125 20.0387 13.3962L19.6715 13.555ZM19.7019 13.6263C19.729 13.6908 19.769 13.7879 19.8176 13.9115L20.1899 13.7652C20.14 13.6384 20.0989 13.5384 20.0707 13.4713L19.7019 13.6263ZM19.8176 13.9115C19.915 14.1594 20.0454 14.5102 20.1755 14.9168L20.5565 14.795C20.4232 14.3783 20.2897 14.0193 20.1899 13.7652L19.8176 13.9115ZM20.1755 14.9168C20.4449 15.7593 20.675 16.7268 20.675 17.5H21.075C21.075 16.6635 20.8294 15.6485 20.5565 14.795L20.1755 14.9168ZM20.675 17.5C20.675 18.5556 20.2523 19.9264 19.9258 20.8054L20.3008 20.9446C20.6286 20.0619 21.075 18.6329 21.075 17.5H20.675ZM19.6619 13.533L19.6636 13.5369L20.0295 13.3751L20.0278 13.3713L19.6619 13.533Z" fill="fuchsia" mask="url(#path-2-outside-1_61_6770)"/>
<path d="M7.375 7.375H16.375V8.69853H7.375V7.375Z" fill="fuchsia"/>
<path d="M7.9375 10.6838H16.9375V12.0074H7.9375V10.6838Z" fill="fuchsia"/>
<path d="M9.0625 13.9926H18.0625V15.3162H9.0625V13.9926Z" fill="fuchsia"/>
<path d="M9.625 17.3015H18.625V18.625H9.625V17.3015Z" fill="fuchsia"/>
</svg>
