<svg width="26" height="26" viewBox="0 0 26 26" fill="none" xmlns="http://www.w3.org/2000/svg">
<rect width="26" height="26" fill="white" style="mix-blend-mode:multiply"/>
<mask id="path-2-outside-1_61_6764" maskUnits="userSpaceOnUse" x="1" y="3" width="24" height="21" fill="black">
<rect fill="white" x="1" y="3" width="24" height="21"/>
<path fill-rule="evenodd" clip-rule="evenodd" d="M14.4942 18.1187C15.0482 18.4774 15.6995 18.6688 16.3657 18.6688C16.8094 18.6732 17.2494 18.5918 17.6602 18.4292C18.0709 18.2667 18.4441 18.0264 18.7578 17.7224C19.0715 17.4184 19.3195 17.0568 19.4872 16.6587C19.6548 16.2607 19.7389 15.8342 19.7344 15.4043C19.7344 14.7586 19.5368 14.1275 19.1667 13.5906C18.7965 13.0538 18.2704 12.6354 17.6549 12.3883C17.0393 12.1412 16.362 12.0765 15.7086 12.2025C15.0551 12.3285 14.4549 12.6394 13.9837 13.0959C13.5126 13.5525 13.1918 14.1342 13.0618 14.7674C12.9318 15.4007 12.9985 16.0571 13.2535 16.6536C13.5085 17.2501 13.9402 17.76 14.4942 18.1187ZM15.4982 13.38C15.7738 13.273 16.0689 13.2213 16.3657 13.228C16.6626 13.2213 16.9577 13.273 17.2333 13.38C17.5089 13.487 17.7592 13.647 17.9691 13.8505C18.1791 14.0539 18.3442 14.2965 18.4547 14.5636C18.5651 14.8307 18.6184 15.1167 18.6115 15.4043C18.6184 15.6919 18.5651 15.978 18.4547 16.245C18.3442 16.5121 18.1791 16.7547 17.9691 16.9581C17.7592 17.1616 17.5089 17.3217 17.2333 17.4287C16.9577 17.5357 16.6626 17.5874 16.3657 17.5807C16.0689 17.5874 15.7738 17.5357 15.4982 17.4287C15.2226 17.3217 14.9723 17.1616 14.7623 16.9581C14.5524 16.7547 14.3872 16.5121 14.2768 16.245C14.1664 15.978 14.1131 15.6919 14.12 15.4043C14.1131 15.1167 14.1664 14.8307 14.2768 14.5636C14.3872 14.2965 14.5524 14.0539 14.7623 13.8505C14.9723 13.647 15.2226 13.487 15.4982 13.38Z"/>
<path fill-rule="evenodd" clip-rule="evenodd" d="M8.32587 19.1912H9.54775L8.89854 18.1248L8.30341 18.1248L7.90479 16.1932C7.35369 15.9928 6.84126 15.704 6.38889 15.339L4.45753 15.9484L3.13252 13.772L4.65965 12.4662C4.55584 11.903 4.55584 11.3264 4.65965 10.7632L3.13252 9.41933L4.45753 7.24297L6.38328 7.87412C6.83408 7.50408 7.3493 7.21482 7.90479 7.0199L8.30341 5.06662H10.9534L11.352 6.99813C11.9031 7.19859 12.4156 7.48735 12.8679 7.85235L14.7993 7.24297L15.1438 7.80883L15.0407 7.80882C14.7773 7.80393 14.5204 7.889 14.3151 8.04915C14.1098 8.2093 13.9692 8.43431 13.9179 8.68481L13.6315 10.0559C13.3755 10.1759 13.1279 10.3123 12.8904 10.464L12.772 10.4225C12.683 10.1985 12.5684 9.98363 12.4294 9.78201C12.0592 9.24516 11.5331 8.82674 10.9175 8.57965C10.302 8.33257 9.62468 8.26792 8.97123 8.39388C8.31777 8.51984 7.71753 8.83076 7.24642 9.28731C6.7753 9.74387 6.45447 10.3256 6.32449 10.9588C6.19451 11.5921 6.26122 12.2485 6.51618 12.845C6.77115 13.4415 7.20292 13.9513 7.75689 14.3101C8.31087 14.6688 8.96216 14.8602 9.62842 14.8602C9.76 14.8615 9.89127 14.8553 10.0216 14.8416L9.12873 14.0496C8.99776 13.9383 8.89621 13.7999 8.83074 13.6458C8.80732 13.6376 8.78404 13.629 8.76089 13.62C8.48529 13.513 8.23496 13.353 8.02502 13.1495C7.81509 12.9461 7.64992 12.7035 7.53951 12.4364C7.4291 12.1693 7.37573 11.8833 7.38265 11.5957C7.37573 11.3081 7.4291 11.022 7.53951 10.755C7.64992 10.4879 7.81509 10.2453 8.02502 10.0419C8.23496 9.83841 8.48529 9.67835 8.76089 9.57134C9.03648 9.46434 9.33161 9.41263 9.62842 9.41933C9.92523 9.41263 10.2204 9.46434 10.496 9.57134C10.7356 9.66438 10.9561 9.79753 11.1476 9.96444C10.9671 9.97198 10.7909 10.0216 10.6341 10.1095C10.4636 10.205 10.322 10.3422 10.2236 10.5075L8.89855 12.6839C8.76751 12.902 8.71881 13.1576 8.7608 13.4067C8.8028 13.6559 8.93285 13.8832 9.12873 14.0496L10.1899 14.9908V15.8233L9.12874 16.7373C8.92734 16.9049 8.79371 17.1362 8.75157 17.3902C8.70943 17.6442 8.76149 17.9045 8.89854 18.1248L10.2236 20.3011C10.322 20.4664 10.4636 20.6036 10.6341 20.6991C10.8045 20.7946 10.9979 20.845 11.1949 20.8452C11.3169 20.8461 11.4383 20.8277 11.5542 20.7908L12.9185 20.3446C13.154 20.4963 13.3997 20.6327 13.654 20.7527L13.9403 22.1238C13.9917 22.3743 14.1323 22.5993 14.3376 22.7595C14.5428 22.9196 14.7997 23.0047 15.0632 22.9998H17.7132C17.9767 23.0047 18.2336 22.9196 18.4388 22.7595C18.6441 22.5993 18.7848 22.3743 18.8361 22.1238L19.1224 20.7527C19.3785 20.6327 19.6261 20.4964 19.8635 20.3446L21.2222 20.7908C21.3382 20.8277 21.4595 20.8461 21.5815 20.8452C21.7785 20.845 21.9719 20.7946 22.1423 20.6991C22.3128 20.6036 22.4544 20.4664 22.5528 20.3011L23.8329 18.1248C23.964 17.9066 24.0127 17.651 23.9707 17.4019C23.9287 17.1528 23.7986 16.9255 23.6027 16.7591L22.5416 15.8178V14.9854L23.6196 14.0713C23.8183 13.9016 23.9487 13.6692 23.9877 13.4153C24.0268 13.1615 23.9719 12.9024 23.8329 12.6839L22.5079 10.5075C22.4095 10.3422 22.2679 10.205 22.0974 10.1095C21.9269 10.014 21.7335 9.96361 21.5366 9.96342C21.4146 9.96251 21.2932 9.98089 21.1773 10.0178L19.813 10.464C19.5775 10.3123 19.3317 10.176 19.0775 10.0559L18.7912 8.68481C18.7398 8.43431 18.5992 8.2093 18.3939 8.04915C18.1886 7.889 17.9318 7.80393 17.6683 7.80882L16.4464 7.80883L15.7706 6.69888C15.6721 6.53362 15.5306 6.39636 15.3601 6.30086C15.1896 6.20536 14.9962 6.15499 14.7993 6.15479C14.6773 6.15389 14.5559 6.17227 14.44 6.2092L13.0757 6.65536C12.8401 6.50367 12.5944 6.36734 12.3402 6.24729L12.0539 4.87618C12.0025 4.62569 11.8619 4.40067 11.6566 4.24053C11.4513 4.08038 11.1945 3.99531 10.931 4.0002H8.30341C8.03993 3.99531 7.78306 4.08038 7.57777 4.24053C7.37249 4.40067 7.23187 4.62569 7.18053 4.87618L6.89419 6.24729C6.63814 6.36732 6.39056 6.50364 6.15309 6.65536L4.81685 6.18744C4.69968 6.15785 4.57834 6.14683 4.45753 6.15479C4.26062 6.15499 4.06722 6.20536 3.89674 6.30086C3.72626 6.39636 3.58469 6.53362 3.48623 6.69888L2.16123 8.87524C2.03018 9.09342 1.98148 9.34896 2.02348 9.5981C2.06547 9.84724 2.19554 10.0745 2.39142 10.2409L3.45255 11.1822V12.0146L2.39142 12.9287C2.19001 13.0963 2.05638 13.3276 2.01424 13.5816C1.9721 13.8356 2.02418 14.0958 2.16123 14.3161L3.48623 16.4925C3.58469 16.6578 3.72626 16.795 3.89674 16.8905C4.06722 16.986 4.26062 17.0364 4.45753 17.0366C4.57956 17.0375 4.70092 17.0191 4.81685 16.9822L6.18116 16.536C6.41671 16.6877 6.66241 16.824 6.91665 16.9441L7.20299 18.3152C7.25433 18.5657 7.39495 18.7907 7.60023 18.9508C7.80552 19.111 8.06238 19.1961 8.32587 19.1912ZM19.6109 19.1259L21.5366 19.757L22.8616 17.5807L21.3345 16.2368C21.4383 15.6736 21.4383 15.097 21.3345 14.5338L22.8616 13.228L21.5366 11.0516L19.6053 11.661C19.1529 11.296 18.6405 11.0072 18.0894 10.8068L17.6908 8.87524H15.0407L14.6421 10.8285C14.0866 11.0234 13.5714 11.3127 13.1206 11.6827L11.1949 11.0516L9.86985 13.228L11.397 14.5719C11.2932 15.1351 11.2932 15.7116 11.397 16.2749L9.86985 17.5807L11.1949 19.757L13.1262 19.1476C13.5786 19.5127 14.091 19.8014 14.6421 20.0019L15.0407 21.9334H17.6908L18.0894 19.9801C18.6449 19.7852 19.1601 19.4959 19.6109 19.1259Z"/>
</mask>
<path fill-rule="evenodd" clip-rule="evenodd" d="M14.4942 18.1187C15.0482 18.4774 15.6995 18.6688 16.3657 18.6688C16.8094 18.6732 17.2494 18.5918 17.6602 18.4292C18.0709 18.2667 18.4441 18.0264 18.7578 17.7224C19.0715 17.4184 19.3195 17.0568 19.4872 16.6587C19.6548 16.2607 19.7389 15.8342 19.7344 15.4043C19.7344 14.7586 19.5368 14.1275 19.1667 13.5906C18.7965 13.0538 18.2704 12.6354 17.6549 12.3883C17.0393 12.1412 16.362 12.0765 15.7086 12.2025C15.0551 12.3285 14.4549 12.6394 13.9837 13.0959C13.5126 13.5525 13.1918 14.1342 13.0618 14.7674C12.9318 15.4007 12.9985 16.0571 13.2535 16.6536C13.5085 17.2501 13.9402 17.76 14.4942 18.1187ZM15.4982 13.38C15.7738 13.273 16.0689 13.2213 16.3657 13.228C16.6626 13.2213 16.9577 13.273 17.2333 13.38C17.5089 13.487 17.7592 13.647 17.9691 13.8505C18.1791 14.0539 18.3442 14.2965 18.4547 14.5636C18.5651 14.8307 18.6184 15.1167 18.6115 15.4043C18.6184 15.6919 18.5651 15.978 18.4547 16.245C18.3442 16.5121 18.1791 16.7547 17.9691 16.9581C17.7592 17.1616 17.5089 17.3217 17.2333 17.4287C16.9577 17.5357 16.6626 17.5874 16.3657 17.5807C16.0689 17.5874 15.7738 17.5357 15.4982 17.4287C15.2226 17.3217 14.9723 17.1616 14.7623 16.9581C14.5524 16.7547 14.3872 16.5121 14.2768 16.245C14.1664 15.978 14.1131 15.6919 14.12 15.4043C14.1131 15.1167 14.1664 14.8307 14.2768 14.5636C14.3872 14.2965 14.5524 14.0539 14.7623 13.8505C14.9723 13.647 15.2226 13.487 15.4982 13.38Z" fill="fuchsia"/>
<path fill-rule="evenodd" clip-rule="evenodd" d="M8.32587 19.1912H9.54775L8.89854 18.1248L8.30341 18.1248L7.90479 16.1932C7.35369 15.9928 6.84126 15.704 6.38889 15.339L4.45753 15.9484L3.13252 13.772L4.65965 12.4662C4.55584 11.903 4.55584 11.3264 4.65965 10.7632L3.13252 9.41933L4.45753 7.24297L6.38328 7.87412C6.83408 7.50408 7.3493 7.21482 7.90479 7.0199L8.30341 5.06662H10.9534L11.352 6.99813C11.9031 7.19859 12.4156 7.48735 12.8679 7.85235L14.7993 7.24297L15.1438 7.80883L15.0407 7.80882C14.7773 7.80393 14.5204 7.889 14.3151 8.04915C14.1098 8.2093 13.9692 8.43431 13.9179 8.68481L13.6315 10.0559C13.3755 10.1759 13.1279 10.3123 12.8904 10.464L12.772 10.4225C12.683 10.1985 12.5684 9.98363 12.4294 9.78201C12.0592 9.24516 11.5331 8.82674 10.9175 8.57965C10.302 8.33257 9.62468 8.26792 8.97123 8.39388C8.31777 8.51984 7.71753 8.83076 7.24642 9.28731C6.7753 9.74387 6.45447 10.3256 6.32449 10.9588C6.19451 11.5921 6.26122 12.2485 6.51618 12.845C6.77115 13.4415 7.20292 13.9513 7.75689 14.3101C8.31087 14.6688 8.96216 14.8602 9.62842 14.8602C9.76 14.8615 9.89127 14.8553 10.0216 14.8416L9.12873 14.0496C8.99776 13.9383 8.89621 13.7999 8.83074 13.6458C8.80732 13.6376 8.78404 13.629 8.76089 13.62C8.48529 13.513 8.23496 13.353 8.02502 13.1495C7.81509 12.9461 7.64992 12.7035 7.53951 12.4364C7.4291 12.1693 7.37573 11.8833 7.38265 11.5957C7.37573 11.3081 7.4291 11.022 7.53951 10.755C7.64992 10.4879 7.81509 10.2453 8.02502 10.0419C8.23496 9.83841 8.48529 9.67835 8.76089 9.57134C9.03648 9.46434 9.33161 9.41263 9.62842 9.41933C9.92523 9.41263 10.2204 9.46434 10.496 9.57134C10.7356 9.66438 10.9561 9.79753 11.1476 9.96444C10.9671 9.97198 10.7909 10.0216 10.6341 10.1095C10.4636 10.205 10.322 10.3422 10.2236 10.5075L8.89855 12.6839C8.76751 12.902 8.71881 13.1576 8.7608 13.4067C8.8028 13.6559 8.93285 13.8832 9.12873 14.0496L10.1899 14.9908V15.8233L9.12874 16.7373C8.92734 16.9049 8.79371 17.1362 8.75157 17.3902C8.70943 17.6442 8.76149 17.9045 8.89854 18.1248L10.2236 20.3011C10.322 20.4664 10.4636 20.6036 10.6341 20.6991C10.8045 20.7946 10.9979 20.845 11.1949 20.8452C11.3169 20.8461 11.4383 20.8277 11.5542 20.7908L12.9185 20.3446C13.154 20.4963 13.3997 20.6327 13.654 20.7527L13.9403 22.1238C13.9917 22.3743 14.1323 22.5993 14.3376 22.7595C14.5428 22.9196 14.7997 23.0047 15.0632 22.9998H17.7132C17.9767 23.0047 18.2336 22.9196 18.4388 22.7595C18.6441 22.5993 18.7848 22.3743 18.8361 22.1238L19.1224 20.7527C19.3785 20.6327 19.6261 20.4964 19.8635 20.3446L21.2222 20.7908C21.3382 20.8277 21.4595 20.8461 21.5815 20.8452C21.7785 20.845 21.9719 20.7946 22.1423 20.6991C22.3128 20.6036 22.4544 20.4664 22.5528 20.3011L23.8329 18.1248C23.964 17.9066 24.0127 17.651 23.9707 17.4019C23.9287 17.1528 23.7986 16.9255 23.6027 16.7591L22.5416 15.8178V14.9854L23.6196 14.0713C23.8183 13.9016 23.9487 13.6692 23.9877 13.4153C24.0268 13.1615 23.9719 12.9024 23.8329 12.6839L22.5079 10.5075C22.4095 10.3422 22.2679 10.205 22.0974 10.1095C21.9269 10.014 21.7335 9.96361 21.5366 9.96342C21.4146 9.96251 21.2932 9.98089 21.1773 10.0178L19.813 10.464C19.5775 10.3123 19.3317 10.176 19.0775 10.0559L18.7912 8.68481C18.7398 8.43431 18.5992 8.2093 18.3939 8.04915C18.1886 7.889 17.9318 7.80393 17.6683 7.80882L16.4464 7.80883L15.7706 6.69888C15.6721 6.53362 15.5306 6.39636 15.3601 6.30086C15.1896 6.20536 14.9962 6.15499 14.7993 6.15479C14.6773 6.15389 14.5559 6.17227 14.44 6.2092L13.0757 6.65536C12.8401 6.50367 12.5944 6.36734 12.3402 6.24729L12.0539 4.87618C12.0025 4.62569 11.8619 4.40067 11.6566 4.24053C11.4513 4.08038 11.1945 3.99531 10.931 4.0002H8.30341C8.03993 3.99531 7.78306 4.08038 7.57777 4.24053C7.37249 4.40067 7.23187 4.62569 7.18053 4.87618L6.89419 6.24729C6.63814 6.36732 6.39056 6.50364 6.15309 6.65536L4.81685 6.18744C4.69968 6.15785 4.57834 6.14683 4.45753 6.15479C4.26062 6.15499 4.06722 6.20536 3.89674 6.30086C3.72626 6.39636 3.58469 6.53362 3.48623 6.69888L2.16123 8.87524C2.03018 9.09342 1.98148 9.34896 2.02348 9.5981C2.06547 9.84724 2.19554 10.0745 2.39142 10.2409L3.45255 11.1822V12.0146L2.39142 12.9287C2.19001 13.0963 2.05638 13.3276 2.01424 13.5816C1.9721 13.8356 2.02418 14.0958 2.16123 14.3161L3.48623 16.4925C3.58469 16.6578 3.72626 16.795 3.89674 16.8905C4.06722 16.986 4.26062 17.0364 4.45753 17.0366C4.57956 17.0375 4.70092 17.0191 4.81685 16.9822L6.18116 16.536C6.41671 16.6877 6.66241 16.824 6.91665 16.9441L7.20299 18.3152C7.25433 18.5657 7.39495 18.7907 7.60023 18.9508C7.80552 19.111 8.06238 19.1961 8.32587 19.1912ZM19.6109 19.1259L21.5366 19.757L22.8616 17.5807L21.3345 16.2368C21.4383 15.6736 21.4383 15.097 21.3345 14.5338L22.8616 13.228L21.5366 11.0516L19.6053 11.661C19.1529 11.296 18.6405 11.0072 18.0894 10.8068L17.6908 8.87524H15.0407L14.6421 10.8285C14.0866 11.0234 13.5714 11.3127 13.1206 11.6827L11.1949 11.0516L9.86985 13.228L11.397 14.5719C11.2932 15.1351 11.2932 15.7116 11.397 16.2749L9.86985 17.5807L11.1949 19.757L13.1262 19.1476C13.5786 19.5127 14.091 19.8014 14.6421 20.0019L15.0407 21.9334H17.6908L18.0894 19.9801C18.6449 19.7852 19.1601 19.4959 19.6109 19.1259Z" fill="fuchsia"/>
<path d="M9.54775 19.1912V19.3912H9.90366L9.71858 19.0872L9.54775 19.1912ZM8.32587 19.1912V18.9911L8.32216 18.9912L8.32587 19.1912ZM8.89854 18.1248L9.06937 18.0208L9.06836 18.0192L8.89854 18.1248ZM8.30341 18.1248L8.10754 18.1652L8.14047 18.3247L8.30339 18.3248L8.30341 18.1248ZM7.90479 16.1932L8.10066 16.1528L8.07809 16.0435L7.97315 16.0053L7.90479 16.1932ZM6.38889 15.339L6.51448 15.1834L6.43101 15.116L6.32871 15.1483L6.38889 15.339ZM4.45753 15.9484L4.2867 16.0524L4.36822 16.1863L4.51771 16.1391L4.45753 15.9484ZM3.13252 13.772L3.00255 13.62L2.87318 13.7307L2.96169 13.876L3.13252 13.772ZM4.65965 12.4662L4.78963 12.6182L4.87723 12.5433L4.85634 12.43L4.65965 12.4662ZM4.65965 10.7632L4.85634 10.7995L4.87689 10.688L4.79178 10.6131L4.65965 10.7632ZM3.13252 9.41933L2.96169 9.31533L2.87445 9.45863L3.0004 9.56947L3.13252 9.41933ZM4.45753 7.24297L4.51982 7.05292L4.36915 7.00354L4.2867 7.13897L4.45753 7.24297ZM6.38328 7.87412L6.32099 8.06417L6.42531 8.09836L6.51017 8.02871L6.38328 7.87412ZM7.90479 7.0199L7.97101 7.20862L8.07806 7.17105L8.10075 7.05989L7.90479 7.0199ZM8.30341 5.06662V4.86662H8.14011L8.10745 5.02662L8.30341 5.06662ZM10.9534 5.06662L11.1493 5.02619L11.1164 4.86662H10.9534V5.06662ZM11.352 6.99813L11.1562 7.03856L11.1787 7.14792L11.2837 7.18609L11.352 6.99813ZM12.8679 7.85235L12.7424 8.008L12.8258 8.07536L12.9281 8.04308L12.8679 7.85235ZM14.7993 7.24297L14.9701 7.13897L14.8886 7.00507L14.7391 7.05224L14.7993 7.24297ZM15.1438 7.80883L15.1438 8.00883L15.4997 8.00884L15.3146 7.70482L15.1438 7.80883ZM15.0407 7.80882L15.037 8.00882H15.0407L15.0407 7.80882ZM14.3151 8.04915L14.4381 8.20684H14.4381L14.3151 8.04915ZM13.9179 8.68481L14.1136 8.72569L14.1138 8.72497L13.9179 8.68481ZM13.6315 10.0559L13.7164 10.237L13.8069 10.1946L13.8273 10.0968L13.6315 10.0559ZM12.8904 10.464L12.8243 10.6527L12.9161 10.6849L12.9981 10.6325L12.8904 10.464ZM12.772 10.4225L12.5862 10.4964L12.6199 10.5812L12.706 10.6113L12.772 10.4225ZM12.4294 9.78201L12.2647 9.89554H12.2647L12.4294 9.78201ZM10.9175 8.57965L10.843 8.76526L10.9175 8.57965ZM8.97123 8.39388L9.00908 8.59026L8.97123 8.39388ZM6.51618 12.845L6.70009 12.7664L6.51618 12.845ZM9.62842 14.8602L9.63039 14.6602H9.62842V14.8602ZM10.0216 14.8416L10.0424 15.0405L10.4938 14.9931L10.1543 14.692L10.0216 14.8416ZM9.12873 14.0496L9.26147 13.8999L9.25823 13.8972L9.12873 14.0496ZM8.83074 13.6458L9.0148 13.5676L8.98024 13.4863L8.89688 13.4571L8.83074 13.6458ZM8.76089 13.62L8.83327 13.4336L8.83327 13.4336L8.76089 13.62ZM7.53951 12.4364L7.35468 12.5128L7.53951 12.4364ZM7.38265 11.5957L7.58282 11.6005L7.58259 11.5909L7.38265 11.5957ZM9.62842 9.41933L9.6239 9.61948L9.63293 9.61928L9.62842 9.41933ZM10.496 9.57134L10.5683 9.3849L10.496 9.57134ZM11.1476 9.96444L11.1559 10.1643L11.6572 10.1433L11.279 9.81367L11.1476 9.96444ZM10.6341 10.1095L10.7318 10.284V10.284L10.6341 10.1095ZM10.2236 10.5075L10.3944 10.6115L10.3954 10.6099L10.2236 10.5075ZM8.89855 12.6839L8.72772 12.5799L8.7271 12.5809L8.89855 12.6839ZM10.1899 14.9908H10.3899V14.9009L10.3226 14.8412L10.1899 14.9908ZM10.1899 15.8233L10.3204 15.9748L10.3899 15.9149V15.8233H10.1899ZM9.12874 16.7373L9.25668 16.8911L9.25928 16.8889L9.12874 16.7373ZM8.75157 17.3902L8.55426 17.3575L8.75157 17.3902ZM10.2236 20.3011L10.3954 20.1987L10.3944 20.1971L10.2236 20.3011ZM11.1949 20.8452L11.1963 20.6452L11.1951 20.6452L11.1949 20.8452ZM11.5542 20.7908L11.6149 20.9814L11.6163 20.9809L11.5542 20.7908ZM12.9185 20.3446L13.0268 20.1765L12.9468 20.125L12.8563 20.1545L12.9185 20.3446ZM13.654 20.7527L13.8498 20.7118L13.8294 20.6144L13.7394 20.5719L13.654 20.7527ZM13.9403 22.1238L14.1362 22.0837L14.1361 22.0829L13.9403 22.1238ZM15.0632 22.9998V22.7998L15.0595 22.7998L15.0632 22.9998ZM17.7132 22.9998L17.7169 22.7998H17.7132V22.9998ZM18.8361 22.1238L18.6403 22.0829L18.6402 22.0837L18.8361 22.1238ZM19.1224 20.7527L19.0375 20.5716L18.9471 20.614L18.9267 20.7118L19.1224 20.7527ZM19.8635 20.3446L19.9259 20.1546L19.8358 20.125L19.7559 20.1761L19.8635 20.3446ZM21.2222 20.7908L21.1598 20.9808L21.1615 20.9814L21.2222 20.7908ZM21.5815 20.8452L21.5814 20.6452L21.5801 20.6452L21.5815 20.8452ZM22.1423 20.6991L22.2401 20.8736L22.2401 20.8736L22.1423 20.6991ZM22.5528 20.3011L22.7247 20.4035L22.7252 20.4025L22.5528 20.3011ZM23.8329 18.1248L23.6615 18.0218L23.6605 18.0234L23.8329 18.1248ZM23.6027 16.7591L23.47 16.9087L23.4732 16.9115L23.6027 16.7591ZM22.5416 15.8178H22.3416V15.9078L22.4089 15.9674L22.5416 15.8178ZM22.5416 14.9854L22.4123 14.8328L22.3416 14.8927V14.9854H22.5416ZM23.6196 14.0713L23.7489 14.2238L23.7495 14.2234L23.6196 14.0713ZM23.9877 13.4153L23.7901 13.3849V13.3849L23.9877 13.4153ZM23.8329 12.6839L23.6621 12.7879L23.6642 12.7912L23.8329 12.6839ZM22.5079 10.5075L22.3361 10.6099L22.3371 10.6115L22.5079 10.5075ZM22.0974 10.1095L21.9997 10.284L22.0974 10.1095ZM21.5366 9.96342L21.5351 10.1634L21.5364 10.1634L21.5366 9.96342ZM21.1773 10.0178L21.1166 9.82726L21.1151 9.82773L21.1773 10.0178ZM19.813 10.464L19.7047 10.6321L19.7847 10.6837L19.8752 10.6541L19.813 10.464ZM19.0775 10.0559L18.8817 10.0968L18.9021 10.1943L18.9921 10.2368L19.0775 10.0559ZM18.7912 8.68481L18.5952 8.72496L18.5954 8.72569L18.7912 8.68481ZM18.3939 8.04915L18.2709 8.20684L18.3939 8.04915ZM17.6683 7.80882L17.6683 8.00886L17.672 8.00879L17.6683 7.80882ZM16.4464 7.80883L16.2755 7.91283L16.334 8.00883L16.4464 8.00883L16.4464 7.80883ZM15.7706 6.69888L15.5988 6.80125L15.5998 6.80289L15.7706 6.69888ZM14.7993 6.15479L14.7978 6.35479L14.7991 6.35479L14.7993 6.15479ZM14.44 6.2092L14.3793 6.01864L14.3778 6.01911L14.44 6.2092ZM13.0757 6.65536L12.9674 6.82351L13.0474 6.87503L13.1378 6.84545L13.0757 6.65536ZM12.3402 6.24729L12.1444 6.28817L12.1648 6.38563L12.2548 6.42814L12.3402 6.24729ZM12.0539 4.87618L11.8579 4.91634L11.8581 4.91707L12.0539 4.87618ZM10.931 4.0002V4.20023L10.9347 4.20017L10.931 4.0002ZM8.30341 4.0002L8.2997 4.2002H8.30341V4.0002ZM7.18053 4.87618L7.37631 4.91707L7.37645 4.91634L7.18053 4.87618ZM6.89419 6.24729L6.97908 6.42838L7.06954 6.38598L7.08997 6.28817L6.89419 6.24729ZM6.15309 6.65536L6.08699 6.84412L6.17879 6.87627L6.26077 6.8239L6.15309 6.65536ZM4.81685 6.18744L4.88295 5.99868L4.8745 5.99572L4.86581 5.99353L4.81685 6.18744ZM4.45753 6.15479L4.45773 6.35522L4.47069 6.35436L4.45753 6.15479ZM3.48623 6.69888L3.65707 6.80289L3.65805 6.80125L3.48623 6.69888ZM2.16123 8.87524L1.99039 8.77124L1.98978 8.77226L2.16123 8.87524ZM2.39142 10.2409L2.52417 10.0913L2.52092 10.0885L2.39142 10.2409ZM3.45255 11.1822H3.65255V11.0922L3.58527 11.0326L3.45255 11.1822ZM3.45255 12.0146L3.58308 12.1662L3.65255 12.1063V12.0146H3.45255ZM2.39142 12.9287L2.51936 13.0825L2.52195 13.0802L2.39142 12.9287ZM2.01424 13.5816L1.81694 13.5489L2.01424 13.5816ZM2.16123 14.3161L2.33207 14.2121L2.33105 14.2105L2.16123 14.3161ZM3.48623 16.4925L3.65806 16.3901L3.65706 16.3885L3.48623 16.4925ZM4.45753 17.0366L4.45901 16.8366L4.45773 16.8366L4.45753 17.0366ZM4.81685 16.9822L4.87757 17.1727L4.87902 17.1723L4.81685 16.9822ZM6.18116 16.536L6.28944 16.3679L6.20944 16.3163L6.11899 16.3459L6.18116 16.536ZM6.91665 16.9441L7.11243 16.9032L7.09207 16.8057L7.00205 16.7632L6.91665 16.9441ZM7.20299 18.3152L7.39891 18.275L7.39876 18.2743L7.20299 18.3152ZM21.5366 19.757L21.4743 19.9471L21.625 19.9965L21.7075 19.861L21.5366 19.757ZM19.6109 19.1259L19.6732 18.9358L19.5688 18.9016L19.484 18.9713L19.6109 19.1259ZM22.8616 17.5807L23.0325 17.6847L23.1197 17.5414L22.9938 17.4305L22.8616 17.5807ZM21.3345 16.2368L21.1378 16.2005L21.1173 16.312L21.2024 16.3869L21.3345 16.2368ZM21.3345 14.5338L21.2045 14.3818L21.1169 14.4567L21.1378 14.57L21.3345 14.5338ZM22.8616 13.228L22.9916 13.38L23.121 13.2693L23.0325 13.1239L22.8616 13.228ZM21.5366 11.0516L21.7075 10.9476L21.6259 10.8137L21.4765 10.8609L21.5366 11.0516ZM19.6053 11.661L19.4797 11.8166L19.5632 11.884L19.6654 11.8517L19.6053 11.661ZM18.0894 10.8068L17.8935 10.8472L17.9161 10.9565L18.021 10.9947L18.0894 10.8068ZM17.6908 8.87524L17.8866 8.83482L17.8537 8.67524H17.6908V8.87524ZM15.0407 8.87524V8.67524H14.8774L14.8448 8.83525L15.0407 8.87524ZM14.6421 10.8285L14.7083 11.0172L14.8154 10.9797L14.8381 10.8685L14.6421 10.8285ZM13.1206 11.6827L13.0583 11.8728L13.1626 11.907L13.2475 11.8373L13.1206 11.6827ZM11.1949 11.0516L11.2571 10.8615L11.1065 10.8122L11.024 10.9476L11.1949 11.0516ZM9.86985 13.228L9.69902 13.1239L9.61177 13.2673L9.73772 13.3781L9.86985 13.228ZM11.397 14.5719L11.5937 14.6081L11.6142 14.4966L11.5291 14.4217L11.397 14.5719ZM11.397 16.2749L11.527 16.4269L11.6146 16.352L11.5937 16.2386L11.397 16.2749ZM9.86985 17.5807L9.73987 17.4287L9.6105 17.5393L9.69902 17.6847L9.86985 17.5807ZM11.1949 19.757L11.024 19.861L11.1055 19.9949L11.255 19.9478L11.1949 19.757ZM13.1262 19.1476L13.2518 18.992L13.1683 18.9246L13.066 18.9569L13.1262 19.1476ZM14.6421 20.0019L14.838 19.9614L14.8154 19.8521L14.7105 19.8139L14.6421 20.0019ZM15.0407 21.9334L14.8449 21.9738L14.8778 22.1334H15.0407V21.9334ZM17.6908 21.9334V22.1334H17.8541L17.8867 21.9734L17.6908 21.9334ZM18.0894 19.9801L18.0232 19.7914L17.9161 19.8289L17.8934 19.9401L18.0894 19.9801ZM16.3657 18.6688L16.3677 18.4688H16.3657V18.6688ZM14.4942 18.1187L14.3855 18.2866L14.4942 18.1187ZM17.6602 18.4292L17.5866 18.2433L17.6602 18.4292ZM19.7344 15.4043H19.5344L19.5344 15.4064L19.7344 15.4043ZM19.1667 13.5906L19.002 13.7042L19.1667 13.5906ZM17.6549 12.3883L17.7294 12.2027L17.6549 12.3883ZM15.7086 12.2025L15.6707 12.0061L15.7086 12.2025ZM13.0618 14.7674L13.2577 14.8076L13.0618 14.7674ZM13.2535 16.6536L13.4374 16.575L13.2535 16.6536ZM16.3657 13.228L16.3612 13.4281L16.3703 13.4279L16.3657 13.228ZM17.2333 13.38L17.1609 13.5664L17.2333 13.38ZM18.6115 15.4043L18.4113 15.3995L18.4116 15.4091L18.6115 15.4043ZM18.4547 16.245L18.6395 16.3214L18.4547 16.245ZM17.2333 17.4287L17.1609 17.2422L17.2333 17.4287ZM16.3657 17.5807L16.3703 17.3805L16.3612 17.3807L16.3657 17.5807ZM14.2768 16.245L14.092 16.3214L14.2768 16.245ZM14.12 15.4043L14.3201 15.4091L14.3199 15.3995L14.12 15.4043ZM9.54775 18.9912H8.32587V19.3912H9.54775V18.9912ZM8.72771 18.2288L9.37692 19.2952L9.71858 19.0872L9.06937 18.0208L8.72771 18.2288ZM8.30339 18.3248L8.89851 18.3248L8.89856 17.9248L8.30344 17.9248L8.30339 18.3248ZM7.70892 16.2337L8.10754 18.1652L8.49929 18.0843L8.10066 16.1528L7.70892 16.2337ZM6.2633 15.4947C6.73298 15.8737 7.26479 16.1733 7.83642 16.3812L7.97315 16.0053C7.44259 15.8123 6.94953 15.5344 6.51448 15.1834L6.2633 15.4947ZM4.51771 16.1391L6.44907 15.5298L6.32871 15.1483L4.39735 15.7577L4.51771 16.1391ZM2.96169 13.876L4.2867 16.0524L4.62836 15.8444L3.30335 13.668L2.96169 13.876ZM4.52967 12.3142L3.00255 13.62L3.2625 13.9241L4.78963 12.6182L4.52967 12.3142ZM4.46296 10.727C4.35473 11.3142 4.35473 11.9153 4.46296 12.5025L4.85634 12.43C4.75694 11.8907 4.75694 11.3387 4.85634 10.7995L4.46296 10.727ZM3.0004 9.56947L4.52752 10.9134L4.79178 10.6131L3.26465 9.26919L3.0004 9.56947ZM4.2867 7.13897L2.96169 9.31533L3.30335 9.52334L4.62836 7.34698L4.2867 7.13897ZM6.44557 7.68406L4.51982 7.05292L4.39524 7.43303L6.32099 8.06417L6.44557 7.68406ZM7.83857 6.83118C7.26122 7.03377 6.72543 7.33451 6.25638 7.71953L6.51017 8.02871C6.94273 7.67364 7.43737 7.39587 7.97101 7.20862L7.83857 6.83118ZM8.10745 5.02662L7.70883 6.9799L8.10075 7.05989L8.49937 5.10661L8.10745 5.02662ZM10.9534 4.86662H8.30341V5.26662H10.9534V4.86662ZM11.5479 6.95771L11.1493 5.02619L10.7576 5.10704L11.1562 7.03856L11.5479 6.95771ZM12.9935 7.6967C12.5239 7.31772 11.9921 7.01811 11.4204 6.81018L11.2837 7.18609C11.8142 7.37907 12.3073 7.65697 12.7424 8.008L12.9935 7.6967ZM14.7391 7.05224L12.8078 7.66162L12.9281 8.04308L14.8595 7.4337L14.7391 7.05224ZM15.3146 7.70482L14.9701 7.13897L14.6285 7.34698L14.973 7.91283L15.3146 7.70482ZM15.1438 7.60883L15.0407 7.60882L15.0407 8.00882L15.1438 8.00883L15.1438 7.60883ZM15.0445 7.60886C14.7357 7.60312 14.434 7.70274 14.1921 7.89146L14.4381 8.20684C14.6068 8.07527 14.8188 8.00474 15.037 8.00879L15.0445 7.60886ZM14.1921 7.89146C13.95 8.08028 13.783 8.34663 13.7219 8.64465L14.1138 8.72497C14.1554 8.52199 14.2696 8.33831 14.4381 8.20684L14.1921 7.89146ZM13.7221 8.64392L13.4357 10.015L13.8273 10.0968L14.1136 8.72569L13.7221 8.64392ZM13.5466 9.87482C13.2827 9.99852 13.0275 10.139 12.7827 10.2954L12.9981 10.6325C13.2282 10.4855 13.4682 10.3534 13.7164 10.237L13.5466 9.87482ZM12.9565 10.2752L12.8381 10.2338L12.706 10.6113L12.8243 10.6527L12.9565 10.2752ZM12.2647 9.89554C12.3952 10.0848 12.5027 10.2864 12.5862 10.4964L12.9579 10.3487C12.8633 10.1107 12.7416 9.88247 12.594 9.66848L12.2647 9.89554ZM10.843 8.76526C11.4228 8.99796 11.9173 9.39164 12.2647 9.89554L12.594 9.66848C12.2011 9.09868 11.6434 8.65551 10.9921 8.39405L10.843 8.76526ZM9.00908 8.59026C9.62496 8.47155 10.2633 8.53253 10.843 8.76526L10.9921 8.39405C10.3407 8.1326 9.6244 8.06429 8.93337 8.1975L9.00908 8.59026ZM7.3856 9.43094C7.82837 9.00186 8.39323 8.70898 9.00908 8.59026L8.93337 8.1975C8.24231 8.33071 7.6067 8.65966 7.10723 9.14369L7.3856 9.43094ZM6.5204 10.999C6.64217 10.4058 6.94291 9.85995 7.3856 9.43094L7.10723 9.14369C6.6077 9.62778 6.26677 10.2453 6.12857 10.9186L6.5204 10.999ZM6.70009 12.7664C6.46107 12.2072 6.39865 11.5922 6.5204 10.999L6.12857 10.9186C5.99037 11.5919 6.06136 12.2897 6.33228 12.9236L6.70009 12.7664ZM7.8656 14.1422C7.34439 13.8047 6.93914 13.3256 6.70009 12.7664L6.33228 12.9236C6.60316 13.5573 7.06144 14.098 7.64819 14.4779L7.8656 14.1422ZM9.62842 14.6602C9.00034 14.6602 8.38687 14.4797 7.8656 14.1422L7.64819 14.4779C8.23487 14.8578 8.92398 15.0602 9.62842 15.0602V14.6602ZM10.0007 14.6427C9.87796 14.6556 9.75432 14.6615 9.63039 14.6602L9.62645 15.0602C9.76568 15.0616 9.90458 15.055 10.0424 15.0405L10.0007 14.6427ZM8.99601 14.1992L9.88883 14.9912L10.1543 14.692L9.26145 13.9L8.99601 14.1992ZM8.64667 13.7241C8.7244 13.9069 8.84472 14.0707 8.99923 14.202L9.25823 13.8972C9.1508 13.8059 9.06801 13.6928 9.0148 13.5676L8.64667 13.7241ZM8.6885 13.8065C8.71371 13.8163 8.73908 13.8256 8.76459 13.8346L8.89688 13.4571C8.87556 13.4496 8.85436 13.4418 8.83327 13.4336L8.6885 13.8065ZM7.88584 13.2931C8.11518 13.5154 8.38829 13.6899 8.6885 13.8065L8.83327 13.4336C8.58229 13.3361 8.35474 13.1905 8.16421 13.0059L7.88584 13.2931ZM7.35468 12.5128C7.47567 12.8055 7.65649 13.0709 7.88584 13.2931L8.16421 13.0059C7.97369 12.8213 7.82417 12.6015 7.72434 12.36L7.35468 12.5128ZM7.1827 11.5909C7.17512 11.9065 7.23368 12.2201 7.35468 12.5128L7.72434 12.36C7.62451 12.1185 7.57635 11.8602 7.58259 11.6005L7.1827 11.5909ZM7.35468 10.6786C7.23368 10.9712 7.17512 11.2849 7.1827 11.6005L7.58259 11.5909C7.57635 11.3312 7.62451 11.0729 7.72434 10.8314L7.35468 10.6786ZM7.88584 9.89823C7.65649 10.1205 7.47567 10.3859 7.35468 10.6786L7.72434 10.8314C7.82417 10.5899 7.97369 10.3701 8.16421 10.1855L7.88584 9.89823ZM8.6885 9.3849C8.38829 9.50146 8.11518 9.67598 7.88584 9.89823L8.16421 10.1855C8.35474 10.0008 8.58229 9.85523 8.83327 9.75779L8.6885 9.3849ZM9.63293 9.21938C9.30997 9.21209 8.9887 9.26835 8.6885 9.3849L8.83327 9.75779C9.08426 9.66034 9.35325 9.61317 9.6239 9.61928L9.63293 9.21938ZM10.5683 9.3849C10.2681 9.26835 9.94687 9.21209 9.6239 9.21938L9.63293 9.61928C9.90358 9.61317 10.1726 9.66034 10.4236 9.75779L10.5683 9.3849ZM11.279 9.81367C11.0699 9.63141 10.8294 9.48625 10.5683 9.3849L10.4236 9.75779C10.6418 9.84251 10.8423 9.96365 11.0162 10.1152L11.279 9.81367ZM11.1392 9.76461C10.9277 9.77346 10.7208 9.83167 10.5363 9.935L10.7318 10.284C10.861 10.2116 11.0065 10.1705 11.1559 10.1643L11.1392 9.76461ZM10.5363 9.935C10.3358 10.0473 10.1684 10.2093 10.0517 10.4051L10.3954 10.6099C10.4756 10.4752 10.5914 10.3626 10.7318 10.284L10.5363 9.935ZM10.0527 10.4035L8.72772 12.5799L9.06938 12.7879L10.3944 10.6115L10.0527 10.4035ZM8.7271 12.5809C8.5717 12.8396 8.5136 13.1434 8.56358 13.44L8.95802 13.3735C8.92402 13.1717 8.96331 12.9645 9.07 12.7868L8.7271 12.5809ZM8.56358 13.44C8.61355 13.7364 8.76811 14.0056 8.99923 14.202L9.25823 13.8972C9.0976 13.7607 8.99204 13.5753 8.95802 13.3735L8.56358 13.44ZM8.99602 14.1992L10.0572 15.1404L10.3226 14.8412L9.26144 13.9L8.99602 14.1992ZM10.0593 15.6717L8.99821 16.5858L9.25928 16.8889L10.3204 15.9748L10.0593 15.6717ZM9.00082 16.5836C8.76323 16.7813 8.60441 17.0552 8.55426 17.3575L8.94887 17.4229C8.983 17.2172 9.09144 17.0285 9.25666 16.8911L9.00082 16.5836ZM8.55426 17.3575C8.50411 17.6598 8.56621 17.9692 8.72871 18.2305L9.06836 18.0192C8.95676 17.8398 8.91475 17.6286 8.94887 17.4229L8.55426 17.3575ZM8.72771 18.2288L10.0527 20.4051L10.3944 20.1971L9.06937 18.0208L8.72771 18.2288ZM10.0517 20.4035C10.1684 20.5994 10.3358 20.7613 10.5363 20.8736L10.7318 20.5247C10.5914 20.446 10.4756 20.3334 10.3954 20.1988L10.0517 20.4035ZM10.5363 20.8736C10.7368 20.986 10.9639 21.045 11.1947 21.0452L11.1951 20.6452C11.032 20.645 10.8722 20.6033 10.7318 20.5247L10.5363 20.8736ZM11.1934 21.0452C11.3364 21.0463 11.4788 21.0247 11.6149 20.9814L11.4935 20.6002C11.3977 20.6307 11.2973 20.646 11.1963 20.6452L11.1934 21.0452ZM11.6163 20.9809L12.9806 20.5347L12.8563 20.1545L11.492 20.6007L11.6163 20.9809ZM12.8102 20.5128C13.0531 20.6692 13.3065 20.8098 13.5686 20.9336L13.7394 20.5719C13.493 20.4555 13.2549 20.3234 13.0268 20.1765L12.8102 20.5128ZM13.4582 20.7936L13.7445 22.1647L14.1361 22.0829L13.8498 20.7118L13.4582 20.7936ZM13.7444 22.164C13.8055 22.462 13.9725 22.7283 14.2145 22.9172L14.4606 22.6018C14.292 22.4703 14.1778 22.2866 14.1362 22.0837L13.7444 22.164ZM14.2145 22.9172C14.4564 23.1059 14.7582 23.2055 15.0669 23.1998L15.0595 22.7998C14.8412 22.8039 14.6292 22.7334 14.4606 22.6018L14.2145 22.9172ZM15.0632 23.1998H17.7132V22.7998H15.0632V23.1998ZM17.7095 23.1998C18.0182 23.2055 18.32 23.1059 18.5619 22.9172L18.3158 22.6018C18.1472 22.7334 17.9352 22.8039 17.7169 22.7998L17.7095 23.1998ZM18.5619 22.9172C18.8039 22.7283 18.9709 22.462 19.032 22.164L18.6402 22.0837C18.5986 22.2866 18.4844 22.4703 18.3158 22.6018L18.5619 22.9172ZM19.0319 22.1647L19.3182 20.7936L18.9267 20.7118L18.6403 22.0829L19.0319 22.1647ZM19.2073 20.9338C19.4712 20.8101 19.7264 20.6696 19.9712 20.5132L19.7559 20.1761C19.5257 20.3231 19.2858 20.4553 19.0375 20.5716L19.2073 20.9338ZM19.8011 20.5347L21.1598 20.9808L21.2846 20.6008L19.9259 20.1546L19.8011 20.5347ZM21.1615 20.9814C21.2976 21.0247 21.44 21.0463 21.583 21.0452L21.5801 20.6452C21.4791 20.646 21.3787 20.6307 21.2829 20.6002L21.1615 20.9814ZM21.5817 21.0452C21.8125 21.045 22.0396 20.986 22.2401 20.8736L22.0446 20.5246C21.9042 20.6033 21.7444 20.645 21.5814 20.6452L21.5817 21.0452ZM22.2401 20.8736C22.4406 20.7613 22.608 20.5994 22.7247 20.4035L22.381 20.1988C22.3008 20.3334 22.185 20.446 22.0446 20.5247L22.2401 20.8736ZM22.7252 20.4025L24.0053 18.2262L23.6605 18.0234L22.3805 20.1997L22.7252 20.4025ZM24.0044 18.2277C24.1598 17.969 24.2179 17.6652 24.1679 17.3687L23.7735 17.4351C23.8075 17.6369 23.7682 17.8442 23.6615 18.0218L24.0044 18.2277ZM24.1679 17.3687C24.1179 17.0722 23.9633 16.803 23.7322 16.6067L23.4732 16.9115C23.6339 17.048 23.7395 17.2333 23.7735 17.4351L24.1679 17.3687ZM23.7355 16.6095L22.6743 15.6682L22.4089 15.9674L23.47 16.9087L23.7355 16.6095ZM22.671 15.1379L23.7489 14.2238L23.4902 13.9188L22.4123 14.8328L22.671 15.1379ZM23.7495 14.2234C23.9839 14.0231 24.1389 13.7479 24.1854 13.4457L23.7901 13.3849C23.7584 13.5906 23.6526 13.78 23.4897 13.9192L23.7495 14.2234ZM24.1854 13.4457C24.2319 13.1435 24.1665 12.8355 24.0017 12.5765L23.6642 12.7912C23.7774 12.9692 23.8217 13.1794 23.7901 13.3849L24.1854 13.4457ZM24.0038 12.5799L22.6788 10.4035L22.3371 10.6115L23.6621 12.7879L24.0038 12.5799ZM22.6798 10.4051C22.5631 10.2093 22.3957 10.0473 22.1952 9.935L21.9997 10.284C22.1401 10.3626 22.2559 10.4752 22.3361 10.6099L22.6798 10.4051ZM22.1952 9.935C21.9946 9.82267 21.7676 9.76365 21.5368 9.76342L21.5364 10.1634C21.6995 10.1636 21.8592 10.2053 21.9997 10.284L22.1952 9.935ZM21.5381 9.76342C21.3951 9.76236 21.2527 9.7839 21.1166 9.82727L21.238 10.2084C21.3338 10.1779 21.4342 10.1627 21.5351 10.1634L21.5381 9.76342ZM21.1151 9.82773L19.7508 10.2739L19.8752 10.6541L21.2395 10.2079L21.1151 9.82773ZM19.9213 10.2958C19.6784 10.1394 19.425 9.99883 19.1629 9.87506L18.9921 10.2368C19.2385 10.3531 19.4765 10.4852 19.7047 10.6321L19.9213 10.2958ZM19.2733 10.015L18.987 8.64392L18.5954 8.72569L18.8817 10.0968L19.2733 10.015ZM18.9871 8.64465C18.926 8.34663 18.759 8.08028 18.5169 7.89146L18.2709 8.20684C18.4394 8.33831 18.5536 8.52199 18.5953 8.72496L18.9871 8.64465ZM18.5169 7.89146C18.275 7.70274 17.9733 7.60312 17.6646 7.60886L17.672 8.00879C17.8903 8.00474 18.1023 8.07527 18.2709 8.20684L18.5169 7.89146ZM17.6683 7.60882L16.4464 7.60883L16.4464 8.00883L17.6683 8.00882L17.6683 7.60882ZM15.5998 6.80289L16.2755 7.91283L16.6172 7.70482L15.9414 6.59488L15.5998 6.80289ZM15.2624 6.47535C15.4028 6.554 15.5186 6.6666 15.5988 6.80125L15.9424 6.59652C15.8257 6.40065 15.6584 6.23872 15.4578 6.12637L15.2624 6.47535ZM14.7991 6.35479C14.9621 6.35496 15.1219 6.39668 15.2624 6.47535L15.4578 6.12637C15.2573 6.01405 15.0303 5.95502 14.7995 5.95479L14.7991 6.35479ZM14.5007 6.39976C14.5965 6.36925 14.6968 6.35404 14.7978 6.35479L14.8008 5.9548C14.6577 5.95374 14.5154 5.97528 14.3793 6.01864L14.5007 6.39976ZM13.1378 6.84545L14.5021 6.3993L14.3778 6.01911L13.0135 6.46526L13.1378 6.84545ZM12.2548 6.42814C12.5012 6.54448 12.7392 6.67656 12.9674 6.82351L13.184 6.48721C12.941 6.33077 12.6877 6.19021 12.4256 6.06644L12.2548 6.42814ZM11.8581 4.91707L12.1444 6.28817L12.536 6.2064L12.2496 4.8353L11.8581 4.91707ZM11.5336 4.39822C11.7021 4.52969 11.8163 4.71337 11.8579 4.91634L12.2498 4.83603C12.1887 4.53801 12.0217 4.27166 11.7796 4.08283L11.5336 4.39822ZM10.9347 4.20017C11.1529 4.19611 11.3649 4.26664 11.5336 4.39822L11.7796 4.08283C11.5377 3.89411 11.236 3.7945 10.9273 3.80023L10.9347 4.20017ZM8.30341 4.2002H10.931V3.8002H8.30341V4.2002ZM7.70079 4.39822C7.86945 4.26664 8.08145 4.19611 8.2997 4.20017L8.30713 3.80023C7.99841 3.7945 7.69667 3.89411 7.45476 4.08283L7.70079 4.39822ZM7.37645 4.91634C7.41806 4.71337 7.53227 4.52969 7.70079 4.39822L7.45476 4.08283C7.21271 4.27166 7.04568 4.53801 6.9846 4.83603L7.37645 4.91634ZM7.08997 6.28817L7.3763 4.91707L6.98475 4.8353L6.69842 6.2064L7.08997 6.28817ZM6.26077 6.8239C6.4909 6.67687 6.73086 6.54474 6.97908 6.42838L6.8093 6.0662C6.54542 6.1899 6.29022 6.33041 6.04541 6.48682L6.26077 6.8239ZM4.75075 6.3762L6.08699 6.84412L6.21919 6.4666L4.88295 5.99868L4.75075 6.3762ZM4.47069 6.35436C4.57066 6.34777 4.67104 6.3569 4.76789 6.38135L4.86581 5.99353C4.72832 5.95881 4.58602 5.94589 4.44437 5.95523L4.47069 6.35436ZM3.99448 6.47535C4.13492 6.39668 4.2947 6.35496 4.45773 6.35479L4.45733 5.95479C4.22653 5.95502 3.99952 6.01405 3.799 6.12637L3.99448 6.47535ZM3.65805 6.80125C3.73827 6.6666 3.85408 6.554 3.99448 6.47535L3.799 6.12637C3.59844 6.23872 3.43111 6.40065 3.31441 6.59652L3.65805 6.80125ZM2.33206 8.97925L3.65706 6.80289L3.3154 6.59488L1.9904 8.77124L2.33206 8.97925ZM2.2207 9.56486C2.18669 9.36312 2.22599 9.15584 2.33268 8.97822L1.98978 8.77226C1.83437 9.03099 1.77627 9.33479 1.82626 9.63134L2.2207 9.56486ZM2.52092 10.0885C2.36027 9.952 2.25471 9.76667 2.2207 9.56486L1.82626 9.63134C1.87623 9.92782 2.03082 10.197 2.26192 10.3933L2.52092 10.0885ZM3.58527 11.0326L2.52414 10.0913L2.2587 10.3905L3.31983 11.3318L3.58527 11.0326ZM2.52195 13.0802L3.58308 12.1662L3.32202 11.8631L2.26089 12.7772L2.52195 13.0802ZM2.21154 13.6143C2.24568 13.4086 2.35412 13.2199 2.51934 13.0824L2.2635 12.775C2.02591 12.9727 1.86709 13.2466 1.81694 13.5489L2.21154 13.6143ZM2.33105 14.2105C2.21944 14.0311 2.17742 13.82 2.21154 13.6143L1.81694 13.5489C1.76678 13.8512 1.82891 14.1606 1.9914 14.4218L2.33105 14.2105ZM3.65706 16.3885L2.33206 14.2121L1.9904 14.4201L3.3154 16.5965L3.65706 16.3885ZM3.99448 16.716C3.85408 16.6374 3.73827 16.5248 3.65805 16.3901L3.31441 16.5949C3.43111 16.7907 3.59844 16.9527 3.799 17.065L3.99448 16.716ZM4.45773 16.8366C4.2947 16.8364 4.13492 16.7947 3.99448 16.716L3.799 17.065C3.99952 17.1773 4.22653 17.2364 4.45733 17.2366L4.45773 16.8366ZM4.75614 16.7916C4.66037 16.8221 4.56001 16.8373 4.45901 16.8366L4.45604 17.2366C4.59911 17.2376 4.74147 17.2161 4.87757 17.1727L4.75614 16.7916ZM6.11899 16.3459L4.75469 16.7921L4.87902 17.1723L6.24332 16.7261L6.11899 16.3459ZM7.00205 16.7632C6.75568 16.6469 6.51762 16.5148 6.28944 16.3679L6.07287 16.7042C6.31579 16.8606 6.56914 17.0012 6.83125 17.1249L7.00205 16.7632ZM7.39876 18.2743L7.11243 16.9032L6.72087 16.985L7.00721 18.3561L7.39876 18.2743ZM7.72325 18.7932C7.55472 18.6617 7.44051 18.478 7.39891 18.275L7.00706 18.3553C7.06814 18.6534 7.23517 18.9197 7.47721 19.1085L7.72325 18.7932ZM8.32216 18.9912C8.1039 18.9953 7.89191 18.9247 7.72325 18.7932L7.47721 19.1085C7.71912 19.2973 8.02087 19.3969 8.32958 19.3911L8.32216 18.9912ZM21.5989 19.567L19.6732 18.9358L19.5486 19.3159L21.4743 19.9471L21.5989 19.567ZM22.6908 17.4767L21.3658 19.653L21.7075 19.861L23.0325 17.6847L22.6908 17.4767ZM21.2024 16.3869L22.7295 17.7308L22.9938 17.4305L21.4666 16.0866L21.2024 16.3869ZM21.1378 14.57C21.2372 15.1093 21.2372 15.6613 21.1378 16.2005L21.5312 16.273C21.6394 15.6858 21.6394 15.0847 21.5312 14.4975L21.1378 14.57ZM22.7317 13.0759L21.2045 14.3818L21.4645 14.6858L22.9916 13.38L22.7317 13.0759ZM21.3658 11.1556L22.6908 13.332L23.0325 13.1239L21.7075 10.9476L21.3658 11.1556ZM19.6654 11.8517L21.5968 11.2423L21.4765 10.8609L19.5451 11.4702L19.6654 11.8517ZM18.021 10.9947C18.5516 11.1877 19.0446 11.4656 19.4797 11.8166L19.7309 11.5053C19.2612 11.1263 18.7294 10.8267 18.1577 10.6188L18.021 10.9947ZM17.4949 8.91566L17.8935 10.8472L18.2852 10.7663L17.8866 8.83482L17.4949 8.91566ZM15.0407 9.07524H17.6908V8.67524H15.0407V9.07524ZM14.8381 10.8685L15.2367 8.91523L14.8448 8.83525L14.4462 10.7885L14.8381 10.8685ZM13.2475 11.8373C13.6801 11.4823 14.1747 11.2045 14.7083 11.0172L14.5759 10.6398C13.9985 10.8424 13.4628 11.1431 12.9937 11.5282L13.2475 11.8373ZM11.1326 11.2416L13.0583 11.8728L13.1829 11.4927L11.2571 10.8615L11.1326 11.2416ZM10.0407 13.332L11.3657 11.1556L11.024 10.9476L9.69902 13.1239L10.0407 13.332ZM11.5291 14.4217L10.002 13.0778L9.73772 13.3781L11.2648 14.722L11.5291 14.4217ZM11.5937 16.2386C11.4943 15.6994 11.4943 15.1474 11.5937 14.6081L11.2003 14.5356C11.0921 15.1228 11.0921 15.7239 11.2003 16.3111L11.5937 16.2386ZM9.99983 17.7327L11.527 16.4269L11.267 16.1228L9.73987 17.4287L9.99983 17.7327ZM11.3657 19.653L10.0407 17.4767L9.69902 17.6847L11.024 19.861L11.3657 19.653ZM13.066 18.9569L11.1347 19.5663L11.255 19.9478L13.1864 19.3384L13.066 18.9569ZM14.7105 19.8139C14.1799 19.6209 13.6869 19.343 13.2518 18.992L13.0006 19.3033C13.4703 19.6823 14.0021 19.9819 14.5737 20.1898L14.7105 19.8139ZM15.2366 21.893L14.838 19.9614L14.4462 20.0423L14.8449 21.9738L15.2366 21.893ZM17.6908 21.7334H15.0407V22.1334H17.6908V21.7334ZM17.8934 19.9401L17.4948 21.8934L17.8867 21.9734L18.2853 20.0201L17.8934 19.9401ZM19.484 18.9713C19.0514 19.3264 18.5568 19.6041 18.0232 19.7914L18.1556 20.1688C18.7329 19.9662 19.2687 19.6655 19.7378 19.2805L19.484 18.9713ZM16.3657 18.4688C15.7377 18.4688 15.1242 18.2883 14.6029 17.9508L14.3855 18.2866C14.9722 18.6664 15.6613 18.8688 16.3657 18.8688V18.4688ZM17.5866 18.2433C17.2 18.3962 16.7856 18.473 16.3677 18.4689L16.3638 18.8688C16.8331 18.8735 17.2989 18.7873 17.7338 18.6152L17.5866 18.2433ZM18.6186 17.5788C18.324 17.8643 17.9732 18.0903 17.5866 18.2433L17.7338 18.6152C18.1687 18.4431 18.5642 18.1885 18.897 17.866L18.6186 17.5788ZM19.3028 16.5811C19.1457 16.954 18.9132 17.2933 18.6186 17.5788L18.897 17.866C19.2298 17.5435 19.4932 17.1595 19.6715 16.7364L19.3028 16.5811ZM19.5344 15.4064C19.5386 15.8088 19.46 16.2082 19.3028 16.5811L19.6715 16.7364C19.8497 16.3132 19.9392 15.8596 19.9344 15.4022L19.5344 15.4064ZM19.002 13.7042C19.3494 14.208 19.5344 14.7996 19.5344 15.4043H19.9344C19.9344 14.7177 19.7243 14.047 19.3313 13.4771L19.002 13.7042ZM17.5804 12.5739C18.1601 12.8066 18.6546 13.2003 19.002 13.7042L19.3313 13.4771C18.9385 12.9073 18.3807 12.4641 17.7294 12.2027L17.5804 12.5739ZM15.7464 12.3989C16.3623 12.2802 17.0006 12.3412 17.5804 12.5739L17.7294 12.2027C17.0781 11.9412 16.3617 11.8729 15.6707 12.0061L15.7464 12.3989ZM14.1229 13.2396C14.5657 12.8105 15.1306 12.5176 15.7464 12.3989L15.6707 12.0061C14.9796 12.1393 14.344 12.4683 13.8446 12.9523L14.1229 13.2396ZM13.2577 14.8076C13.3795 14.2144 13.6802 13.6686 14.1229 13.2396L13.8446 12.9523C13.345 13.4364 13.0041 14.054 12.8659 14.7272L13.2577 14.8076ZM13.4374 16.575C13.1984 16.0158 13.136 15.4008 13.2577 14.8076L12.8659 14.7272C12.7277 15.4005 12.7987 16.0984 13.0696 16.7322L13.4374 16.575ZM14.6029 17.9508C14.0817 17.6133 13.6765 17.1343 13.4374 16.575L13.0696 16.7322C13.3405 17.366 13.7988 17.9066 14.3855 18.2866L14.6029 17.9508ZM16.3703 13.028C16.0473 13.0207 15.726 13.077 15.4258 13.1935L15.5706 13.5664C15.8216 13.469 16.0906 13.4218 16.3612 13.4279L16.3703 13.028ZM17.3057 13.1935C17.0055 13.077 16.6842 13.0207 16.3612 13.028L16.3703 13.4279C16.6409 13.4218 16.9099 13.469 17.1609 13.5664L17.3057 13.1935ZM18.1083 13.7069C17.879 13.4846 17.6059 13.3101 17.3057 13.1935L17.1609 13.5664C17.4119 13.6639 17.6394 13.8095 17.83 13.9941L18.1083 13.7069ZM18.6395 14.4872C18.5185 14.1945 18.3377 13.9291 18.1083 13.7069L17.83 13.9941C18.0205 14.1787 18.17 14.3985 18.2698 14.64L18.6395 14.4872ZM18.8115 15.4091C18.819 15.0935 18.7605 14.7799 18.6395 14.4872L18.2698 14.64C18.3697 14.8815 18.4178 15.1398 18.4116 15.3995L18.8115 15.4091ZM18.6395 16.3214C18.7605 16.0288 18.819 15.7151 18.8115 15.3995L18.4116 15.4091C18.4178 15.6688 18.3697 15.9272 18.2698 16.1686L18.6395 16.3214ZM18.1083 17.1018C18.3377 16.8795 18.5185 16.6141 18.6395 16.3214L18.2698 16.1686C18.17 16.4101 18.0205 16.6299 17.83 16.8145L18.1083 17.1018ZM17.3057 17.6151C17.6059 17.4985 17.879 17.324 18.1083 17.1018L17.83 16.8145C17.6394 16.9992 17.4119 17.1448 17.1609 17.2422L17.3057 17.6151ZM16.3612 17.7806C16.6842 17.7879 17.0055 17.7316 17.3057 17.6151L17.1609 17.2422C16.9099 17.3397 16.6409 17.3868 16.3703 17.3807L16.3612 17.7806ZM15.4258 17.6151C15.726 17.7316 16.0473 17.7879 16.3703 17.7806L16.3612 17.3807C16.0906 17.3868 15.8216 17.3397 15.5706 17.2422L15.4258 17.6151ZM14.6232 17.1018C14.8525 17.324 15.1256 17.4985 15.4258 17.6151L15.5706 17.2422C15.3196 17.1448 15.0921 16.9992 14.9015 16.8145L14.6232 17.1018ZM14.092 16.3214C14.213 16.6141 14.3938 16.8795 14.6232 17.1018L14.9015 16.8145C14.711 16.6299 14.5615 16.4101 14.4617 16.1686L14.092 16.3214ZM13.92 15.3995C13.9124 15.7151 13.971 16.0288 14.092 16.3214L14.4617 16.1686C14.3618 15.9272 14.3137 15.6688 14.3199 15.4091L13.92 15.3995ZM14.092 14.4872C13.971 14.7799 13.9124 15.0935 13.92 15.4091L14.3199 15.3995C14.3137 15.1398 14.3618 14.8815 14.4617 14.64L14.092 14.4872ZM14.6232 13.7069C14.3938 13.9291 14.213 14.1945 14.092 14.4872L14.4617 14.64C14.5615 14.3985 14.711 14.1787 14.9015 13.9941L14.6232 13.7069ZM15.4258 13.1935C15.1256 13.3101 14.8525 13.4846 14.6232 13.7069L14.9015 13.9941C15.0921 13.8095 15.3196 13.6639 15.5706 13.5664L15.4258 13.1935ZM9.98987 14.9908V15.8233H10.3899V14.9908H9.98987ZM22.7416 15.8178V14.9854H22.3416V15.8178H22.7416ZM3.65255 12.0146V11.1822H3.25255V12.0146H3.65255Z" fill="fuchsia" mask="url(#path-2-outside-1_61_6764)"/>
</svg>
