<svg width="36" height="36" viewBox="0 0 36 36" fill="none" xmlns="http://www.w3.org/2000/svg">
<path fill-rule="evenodd" clip-rule="evenodd" d="M18 27C22.9706 27 27 22.9706 27 18C27 13.0294 22.9706 9 18 9C13.0294 9 9 13.0294 9 18C9 22.9706 13.0294 27 18 27ZM18 29C24.0751 29 29 24.0751 29 18C29 11.9249 24.0751 7 18 7C11.9249 7 7 11.9249 7 18C7 24.0751 11.9249 29 18 29Z" fill="fuchsia"/>
<path fill-rule="evenodd" clip-rule="evenodd" d="M17 17.5858V11H19V17.5858L22.7071 21.2929L21.2929 22.7071L17.5858 19C17.2107 18.6249 17 18.1162 17 17.5858Z" fill="fuchsia"/>
</svg>
