<svg width="26" height="26" viewBox="0 0 26 26" fill="none" xmlns="http://www.w3.org/2000/svg">
<rect width="26" height="26" fill="white" style="mix-blend-mode:multiply"/>
<path fill-rule="evenodd" clip-rule="evenodd" d="M19.0855 24.1001H20.6601V20.5001C20.6601 17.3539 18.1554 14.8001 15.0619 14.8001H10.9383C7.84476 14.8001 5.34009 17.3539 5.34009 20.5001V24.1001H6.91463V20.5001C6.91463 18.234 8.7178 16.4001 10.9383 16.4001H15.0619C17.2824 16.4001 19.0855 18.234 19.0855 20.5001V24.1001Z" fill="fuchsia"/>
<path fill-rule="evenodd" clip-rule="evenodd" d="M13.0001 13.9001C15.714 13.9001 17.911 11.6598 17.911 8.90015C17.911 6.14046 15.714 3.90015 13.0001 3.90015C10.2861 3.90015 8.08918 6.14046 8.08918 8.90015C8.08918 11.6598 10.2861 13.9001 13.0001 13.9001ZM16.3365 8.90015C16.3365 10.7797 14.841 12.3001 13.0001 12.3001C11.1592 12.3001 9.66372 10.7797 9.66372 8.90015C9.66372 7.02064 11.1592 5.50015 13.0001 5.50015C14.841 5.50015 16.3365 7.02064 16.3365 8.90015Z" fill="fuchsia"/>
</svg>
